<?xml version="1.0" encoding="UTF-8"?>
<svg version="1.1" xmlns="http://www.w3.org/2000/svg" width="373" height="381">
<path d="M0 0 C123.09 0 246.18 0 373 0 C373 125.73 373 251.46 373 381 C249.91 381 126.82 381 0 381 C0 255.27 0 129.54 0 0 Z " fill="#00B0F5" transform="translate(0,0)"/>
<path d="M0 0 C5.60203227 0.75299623 10.5069572 0.99950985 15.99609375 -0.609375 C19.91905088 -1.69908531 22.43840885 -1.53004622 26.37109375 -0.546875 C28.95551751 1.32460427 30.07799204 3.56851349 31.37109375 6.453125 C32.03109375 6.123125 32.69109375 5.793125 33.37109375 5.453125 C38.89205272 4.79060992 42.28490485 5.88306494 46.75390625 8.9609375 C48.37109375 10.453125 48.37109375 10.453125 49.62109375 13.453125 C49.29454351 17.37172791 47.9371191 18.48193775 45.37109375 21.453125 C41.04096158 28.65599858 38.44423544 36.53600141 35.97070312 44.52294922 C35.38396607 46.4116883 34.77618977 48.29385062 34.16796875 50.17578125 C32.0278751 57.10094346 30.76930936 63.19827982 31.37109375 70.453125 C33.23570027 71.13584756 33.23570027 71.13584756 35.37109375 71.453125 C38.00733809 69.56083234 38.00733809 69.56083234 40.37109375 67.453125 C41.03109375 67.453125 41.69109375 67.453125 42.37109375 67.453125 C42.41234375 66.215625 42.45359375 64.978125 42.49609375 63.703125 C43.65475153 53.7449311 49.1015635 46.03095658 56.125 39.1953125 C61.62380314 34.93015389 66.71935084 35.15617219 73.37109375 35.453125 C74.17546875 35.47117187 74.97984375 35.48921875 75.80859375 35.5078125 C81.60232443 35.84056055 84.35434202 37.24043416 88.37109375 41.453125 C90.38648268 44.66129513 90.61593556 47.13213009 90.55859375 50.890625 C90.54892578 52.28087891 90.54892578 52.28087891 90.5390625 53.69921875 C90.37614637 56.37028556 89.96242325 58.84654458 89.37109375 61.453125 C90.69109375 61.123125 92.01109375 60.793125 93.37109375 60.453125 C93.73460937 58.73416016 93.73460937 58.73416016 94.10546875 56.98046875 C94.44340111 55.45038613 94.78197719 53.92044559 95.12109375 52.390625 C95.27835938 51.63845703 95.435625 50.88628906 95.59765625 50.11132812 C97.01697976 43.80625636 98.7698036 38.18731843 104.37109375 34.453125 C106.7109375 34.37109375 106.7109375 34.37109375 109.30859375 34.640625 C110.16324219 34.71667969 111.01789063 34.79273438 111.8984375 34.87109375 C114.68552441 35.5271379 116.21915207 36.60075757 118.37109375 38.453125 C117.84992639 43.40421493 116.23216519 47.54574314 114.30859375 52.0859375 C112.4202145 56.85409511 112.24587554 61.09882766 112.30859375 66.203125 C112.31536133 67.24919922 112.31536133 67.24919922 112.32226562 68.31640625 C112.33399355 70.02868303 112.35192722 71.74091533 112.37109375 73.453125 C115.67109375 72.793125 118.97109375 72.133125 122.37109375 71.453125 C122.3246875 70.48632812 122.27828125 69.51953125 122.23046875 68.5234375 C122.00936707 60.54798391 122.03428597 53.45337422 126.37109375 46.453125 C129.72444698 43.17961352 132.09009687 41.59545799 136.74609375 41.078125 C140.37109375 41.453125 140.37109375 41.453125 142.80859375 43.515625 C145.38168659 48.35303954 144.90489874 51.51419206 143.5 56.6171875 C142.80447055 58.87447356 142.08668836 61.12505812 141.34375 63.3671875 C140.49157137 66.07088678 139.77115147 68.64765695 139.37109375 71.453125 C140.46178654 72.75721259 140.46178654 72.75721259 143.12109375 72.703125 C147.0172771 72.40341859 148.41504507 72.03019308 151.37109375 69.453125 C154.95557902 63.80173384 154.95557902 63.80173384 156.37109375 57.453125 C154.72565595 55.76549649 153.05820798 54.0990901 151.37109375 52.453125 C149.63965646 48.99025042 149.76905273 45.23145142 150.37109375 41.453125 C153.13754497 38.68667378 155.00461627 38.49239044 158.87109375 38.078125 C162.57084663 38.47452709 164.43964907 39.21143201 167.37109375 41.453125 C168.69338564 44.09770879 168.46786569 46.13073801 168.43359375 49.078125 C168.42457031 50.08101563 168.41554688 51.08390625 168.40625 52.1171875 C168.38884766 53.27347656 168.38884766 53.27347656 168.37109375 54.453125 C169.41910156 54.63488281 169.41910156 54.63488281 170.48828125 54.8203125 C171.39835938 54.98789062 172.3084375 55.15546875 173.24609375 55.328125 C174.15101563 55.49054688 175.0559375 55.65296875 175.98828125 55.8203125 C178.37109375 56.453125 178.37109375 56.453125 180.37109375 58.453125 C180.49609375 61.078125 180.49609375 61.078125 180.37109375 63.453125 C176.12007146 65.57863614 170.69792352 64.88637554 166.30859375 63.453125 C165.66921875 63.123125 165.02984375 62.793125 164.37109375 62.453125 C164.27054688 63.175 164.17 63.896875 164.06640625 64.640625 C162.5206705 70.89303925 157.89416799 76.65980714 152.74609375 80.453125 C147.62737366 83.48644061 143.85738902 84.75819164 137.87109375 84.828125 C136.76765625 84.85648437 135.66421875 84.88484375 134.52734375 84.9140625 C130.73793037 84.36065807 129.23800067 82.89220876 126.37109375 80.453125 C123.34297092 80.98954435 123.34297092 80.98954435 120.37109375 82.453125 C114.02838283 85.10821329 106.98789668 85.68437706 100.43359375 83.453125 C97.48475846 80.59364835 95.70377804 77.33205525 94.37109375 73.453125 C94.37109375 72.133125 94.37109375 70.813125 94.37109375 69.453125 C91.18208283 68.78874772 88.54267812 68.63417129 85.37109375 69.453125 C83.09074988 71.75983123 81.34703188 74.26122997 79.45703125 76.89453125 C75.50613984 81.7406621 70.65482335 83.95106717 64.53515625 84.88671875 C57.24448405 85.21629708 53.01232572 83.50706149 47.43359375 78.828125 C46.37109375 77.453125 46.37109375 77.453125 46.37109375 75.453125 C45.48808594 76.030625 44.60507813 76.608125 43.6953125 77.203125 C37.12525143 81.33366585 31.69559396 84.63947995 23.65625 83.98828125 C20.39438533 83.22439158 18.54105572 81.9847473 16.37109375 79.453125 C10.47709497 61.77112866 16.82158844 36.28876319 23.37109375 19.453125 C22.69530273 19.39777588 22.01951172 19.34242676 21.32324219 19.28540039 C18.25556677 19.03221969 15.18833779 18.7739771 12.12109375 18.515625 C11.05761719 18.42861328 9.99414062 18.34160156 8.8984375 18.25195312 C7.36123047 18.12143555 7.36123047 18.12143555 5.79296875 17.98828125 C4.8503418 17.909729 3.90771484 17.83117676 2.93652344 17.75024414 C0.66359853 17.48700189 -1.4296622 17.07081392 -3.62890625 16.453125 C-5.24448466 20.420685 -6.73686692 24.42383397 -8.19140625 28.453125 C-8.62582031 29.649375 -9.06023437 30.845625 -9.5078125 32.078125 C-10.43982338 34.88389992 -11.13859119 37.5442896 -11.62890625 40.453125 C-9.98341797 40.40091797 -9.98341797 40.40091797 -8.3046875 40.34765625 C-6.8502758 40.31950635 -5.39584745 40.29220748 -3.94140625 40.265625 C-2.85956055 40.22791992 -2.85956055 40.22791992 -1.75585938 40.18945312 C2.82991647 40.12663428 5.79701374 40.50235393 9.37109375 43.453125 C11.38926175 46.37765587 11.59917282 48.69843676 11.49609375 52.203125 C11.47804688 53.00234375 11.46 53.8015625 11.44140625 54.625 C11.41820312 55.22828125 11.395 55.8315625 11.37109375 56.453125 C7.66318482 56.60446822 4.68615853 56.55006801 1.12109375 55.453125 C-3.84390688 54.12912483 -8.5224863 54.28691242 -13.62890625 54.453125 C-13.79326172 55.57847656 -13.79326172 55.57847656 -13.9609375 56.7265625 C-16.29587276 71.799234 -20.17792135 84.01298795 -32.56640625 93.765625 C-38.1410803 96.72336691 -44.54941394 96.33029925 -50.62890625 95.453125 C-55.93496565 93.55265405 -60.27505574 90.76228676 -63.25390625 85.890625 C-65.7582332 79.60572756 -66.05828069 72.23778445 -63.6640625 65.8984375 C-57.43796017 55.46746027 -45.56861281 49.70656024 -34.62890625 45.453125 C-33.96890625 45.453125 -33.30890625 45.453125 -32.62890625 45.453125 C-32.51933594 44.47472656 -32.40976563 43.49632812 -32.296875 42.48828125 C-31.52897261 36.00294384 -30.72683976 29.74555949 -28.42578125 23.59375 C-27.48105826 21.05596472 -26.71012086 18.48684983 -25.94140625 15.890625 C-25.56435547 14.62025391 -25.56435547 14.62025391 -25.1796875 13.32421875 C-24.99792969 12.70675781 -24.81617188 12.08929688 -24.62890625 11.453125 C-38.49340989 11.08395183 -50.69639353 11.64750635 -62.62890625 19.453125 C-65.97379054 23.23174154 -66.77939185 26.47838953 -66.81640625 31.453125 C-66.83767578 32.7525 -66.83767578 32.7525 -66.859375 34.078125 C-66.79146563 36.72034037 -66.79146563 36.72034037 -64.62890625 39.453125 C-64.62890625 41.890625 -64.62890625 41.890625 -65.62890625 44.453125 C-68.62556047 47.03164142 -70.79596889 48.30013651 -74.69140625 49.015625 C-78.6388387 48.25973368 -80.09695742 46.4914636 -82.62890625 43.453125 C-85.31213216 38.08667319 -84.40022275 29.15994131 -82.79296875 23.51953125 C-77.82823788 12.84036184 -69.41607652 6.629601 -58.62890625 2.453125 C-40.04185374 -4.10222101 -19.24790657 -2.67067088 0 0 Z " fill="#F4FCFD" transform="translate(135.62890625,223.546875)"/>
<path d="M0 0 C5.25830521 -0.31549831 8.47929032 0.26654764 13 3 C13.66 3.66 14.32 4.32 15 5 C14.63820386 11.60277959 13.19706132 17.75374693 11.5 24.125 C10.01690443 29.74381349 8.68867929 35.22448501 8 41 C13.40430634 39.48679423 15.43123858 37.84554437 18.25 32.9375 C18.93835938 31.62072266 18.93835938 31.62072266 19.640625 30.27734375 C21 28 21 28 24 26 C27.71763634 25.65577441 30.36404634 25.76497365 33.875 27.0625 C36 29 36 29 37 32.5 C37 36 37 36 35.6875 37.9375 C34 39 34 39 32 39 C32.33 39.99 32.66 40.98 33 42 C36.3 42.33 39.6 42.66 43 43 C43.62830475 40.14846305 44.10303857 37.8796569 44 35 C42.32972053 32.7110896 42.32972053 32.7110896 40.7421875 31.48828125 C38.35687384 29.45060298 36.34195192 27.14840159 34.25 24.8125 C33.47140625 23.95269531 32.6928125 23.09289062 31.890625 22.20703125 C29.03901179 18.87818525 28.58381377 16.51936122 28.6640625 12.09765625 C29.24655757 8.46044864 31.20100555 6.19140785 34 4 C39.80235034 0.52121529 46.4015442 0.11764835 53 1 C57.29105265 2.43976109 61.12315458 4.43408981 64 8 C64.5749726 10.84667807 64.28110629 13.04838397 64 16 C60.40068251 18.399545 59.23696577 18.81480111 55 18 C53.02149085 16.0386208 51.36704686 13.98924645 49.7109375 11.75 C48.86402344 10.88375 48.86402344 10.88375 48 10 C46.68 10 45.36 10 44 10 C46.83939315 18.8967652 53.8507824 24.3672831 61 30 C63.70344265 34.05516398 63.64393027 37.23980663 63 42 C60.43427208 47.4393432 57.23802637 49.474523 52 52 C44.98760174 54.36905347 33.82065638 54.43588686 27.1875 51.1875 C24.76924982 49.52791654 22.98753675 48.08303401 21 46 C17.94477815 47.11098976 15.53836815 48.30775456 12.8125 50.125 C8.39898021 52.69391962 3.97501697 52.85718198 -1 52 C-4.125 50.125 -4.125 50.125 -6 48 C-6 47.34 -6 46.68 -6 46 C-6.66 46 -7.32 46 -8 46 C-8.33 46.99 -8.66 47.98 -9 49 C-13.84080936 52.60485804 -17.60129336 53.65254558 -23.6328125 53.38671875 C-28.19819001 52.64088975 -30.92829173 50.44436462 -33.62890625 46.8046875 C-36.59657687 40.73406783 -36.04207425 32.46431794 -34.12109375 26.078125 C-29.7422771 16.77133317 -22.92094756 9.99642218 -14 5 C-10.98509443 3.99503148 -8.95818308 3.89664697 -5.8125 3.9375 C-4.91144531 3.94652344 -4.01039063 3.95554687 -3.08203125 3.96484375 C-2.39496094 3.97644531 -1.70789063 3.98804687 -1 4 C-0.67 2.68 -0.34 1.36 0 0 Z " fill="#F3FCFD" transform="translate(163,95)"/>
<path d="M0 0 C3.10039543 1.75494081 5.48825667 3.48825667 8 6 C8.60041157 9.07710928 8.51489479 11.15131134 6.8671875 13.8671875 C6.37476563 14.55039063 5.88234375 15.23359375 5.375 15.9375 C-0.88752879 24.70207929 -4.23160498 35.67922909 -7 46 C-2.5348325 43.40397238 0.05301085 40.94749496 2.82421875 36.5859375 C4.52904742 34.28640115 6.25607091 33.1198088 9.0859375 32.6640625 C13.07032577 32.59606953 15.47918154 32.72364735 19.0625 34.625 C21 37 21 37 21.5625 39.875 C20.72140389 44.54775618 18.90711025 47.51890394 15.12890625 50.453125 C11.22082983 53.0240335 8.74630018 54.05073996 4 55 C5.98 58.96 7.96 62.92 10 67 C13.37045713 67.41270904 15.95880198 67.64889327 18.91796875 65.8046875 C21.53452674 63.58423956 23.68274021 61.46368738 25.625 58.625 C27 57 27 57 29.6875 56.75 C30.450625 56.8325 31.21375 56.915 32 57 C32.75 59.125 32.75 59.125 33 62 C31.375 64.9375 31.375 64.9375 29 68 C28.2575 69.010625 27.515 70.02125 26.75 71.0625 C22.78114042 75.74624733 16.90552225 79.58995377 10.73046875 80.23828125 C6.57117325 80.3596739 3.57001862 80.2366115 -0.3125 78.625 C-4.75239792 74.28835552 -7.05448347 68.8365496 -9 63 C-9.268125 63.99 -9.53625 64.98 -9.8125 66 C-12.95982143 76.95982143 -12.95982143 76.95982143 -16 80 C-18.8125 80.4375 -18.8125 80.4375 -22 80 C-25.3247242 77.19245512 -27.82681027 75.04497104 -28.203125 70.6015625 C-28.21859375 69.61929688 -28.2340625 68.63703125 -28.25 67.625 C-28.27578125 66.66851562 -28.3015625 65.71203125 -28.328125 64.7265625 C-27.94605518 60.387341 -26.91452449 56.42600357 -25.81103516 52.22021484 C-24.24325917 45.99536076 -23.14658254 39.66623868 -21.98242188 33.35546875 C-17.19505201 8.47353993 -17.19505201 8.47353993 -9.0546875 1.28125 C-5.90434432 -0.68322255 -3.63706112 -0.43895565 0 0 Z " fill="#F5FCFD" transform="translate(257,68)"/>
<path d="M0 0 C1.43653931 -0.0049926 1.43653931 -0.0049926 2.90209961 -0.01008606 C4.92268393 -0.01513834 6.94327656 -0.01749491 8.96386719 -0.01733398 C12.05157186 -0.0195235 15.13892083 -0.03770558 18.2265625 -0.05664062 C20.19270711 -0.0595743 22.15885342 -0.06155927 24.125 -0.0625 C25.50643188 -0.07327827 25.50643188 -0.07327827 26.91577148 -0.08427429 C35.17680612 -0.05487097 35.17680612 -0.05487097 39.0625 2.16796875 C40.6172669 5.27750254 40.34894437 7.73063636 40.0625 11.16796875 C37.75845337 15.60539189 35.59977175 18.09844187 31.0625 20.16796875 C27.94718122 20.5207836 24.87995646 20.45181311 21.75 20.35546875 C20.49606445 20.33516602 20.49606445 20.33516602 19.21679688 20.31445312 C17.16508502 20.27928092 15.11370725 20.22547923 13.0625 20.16796875 C10.10756523 26.66212641 8.12331689 33.26688634 6.375 40.16796875 C6.05366089 41.41271973 6.05366089 41.41271973 5.72583008 42.68261719 C3.13390538 53.1990753 2.82817219 63.69448117 2.72070312 74.484375 C2.51251299 81.50474 2.51251299 81.50474 0.2734375 84.8046875 C-3.41167579 87.076957 -5.65504812 86.64379674 -9.9375 86.16796875 C-12.98856427 84.23562805 -13.87039265 81.54351241 -14.9375 78.16796875 C-17.21713253 57.76433471 -12.68120974 37.31392763 -5.9375 18.16796875 C-7.16593628 18.39842896 -7.16593628 18.39842896 -8.41918945 18.63354492 C-14.91812954 19.83396513 -21.31855935 20.76464474 -27.9375 20.16796875 C-28.9375 19.16796875 -28.9375 19.16796875 -28.95703125 17.27734375 C-28.50324693 12.10591487 -28.01582109 8.73649971 -23.9375 5.16796875 C-16.00653943 0.79482227 -8.91345227 0.01077045 0 0 Z " fill="#F8FDFD" transform="translate(115.9375,61.83203125)"/>
<path d="M0 0 C13.86 0.99 13.86 0.99 28 2 C27.236875 4.59875 26.47375 7.1975 25.6875 9.875 C21.96163424 23.17022801 19.75842751 35.97709326 19.625 49.8125 C19.61106201 50.7499707 19.59712402 51.68744141 19.58276367 52.65332031 C19.61712259 57.54924335 19.73225591 61.07073698 23 65 C25.58120066 66.29060033 27.49419829 66.13272333 30.375 66.125 C31.33148438 66.12757813 32.28796875 66.13015625 33.2734375 66.1328125 C35.68140854 66.01551878 37.69990068 65.68675951 40 65 C39.34 66.65 38.68 68.3 38 70 C37.43023437 69.82984375 36.86046875 69.6596875 36.2734375 69.484375 C33.89795402 68.97825824 32.03636859 69.06385927 29.625 69.25 C26.12660348 69.30187079 24.27959921 68.92393301 21.5625 66.6875 C18.29610201 63.26176552 16.77432599 61.22909535 16.5859375 56.55078125 C16.54726562 55.70322266 16.50859375 54.85566406 16.46875 53.98242188 C16.4378125 53.10134766 16.406875 52.22027344 16.375 51.3125 C16.33632812 50.41982422 16.29765625 49.52714844 16.2578125 48.60742188 C16.16359782 46.4051538 16.07798412 44.20289278 16 42 C15.37351563 41.95101562 14.74703125 41.90203125 14.1015625 41.8515625 C13.28429687 41.77679688 12.46703125 41.70203125 11.625 41.625 C10.81289062 41.55539062 10.00078125 41.48578125 9.1640625 41.4140625 C7 41 7 41 5 39 C8.3 39.33 11.6 39.66 15 40 C14.55807881 32.4754454 14.55807881 32.4754454 11 26 C7.28720531 24.76240177 3.68693654 24.64391103 -0.1875 24.4375 C-0.93708984 24.39431641 -1.68667969 24.35113281 -2.45898438 24.30664062 C-4.30578375 24.20077315 -6.15286834 24.0999024 -8 24 C-7.50187047 15.53179805 -4.71484816 7.07227224 0 0 Z " fill="#04B6F0" transform="translate(132,240)"/>
<path d="M0 0 C4.44794163 3.13663808 4.44794163 3.13663808 5.0546875 6.140625 C5.03210762 8.15399797 4.84714807 10.16353903 4.65625 12.16796875 C1.05693251 14.56751375 -0.10678423 14.98276986 -4.34375 14.16796875 C-6.32225915 12.20658955 -7.97670314 10.1572152 -9.6328125 7.91796875 C-10.19742188 7.34046875 -10.76203125 6.76296875 -11.34375 6.16796875 C-12.66375 6.16796875 -13.98375 6.16796875 -15.34375 6.16796875 C-13.25468613 11.85486485 -10.48125119 15.76266814 -6.34375 20.16796875 C-8.65375 20.82796875 -10.96375 21.48796875 -13.34375 22.16796875 C-13.01375 23.15796875 -12.68375 24.14796875 -12.34375 25.16796875 C-13.66375 25.16796875 -14.98375 25.16796875 -16.34375 25.16796875 C-16.67375 26.15796875 -17.00375 27.14796875 -17.34375 28.16796875 C-29.34658826 18.36912561 -29.34658826 18.36912561 -30.8203125 12.16015625 C-31.0984601 8.31000792 -30.3236836 6.13473377 -28.34375 2.85546875 C-20.9591254 -4.71480284 -8.87007686 -4.90485182 0 0 Z " fill="#F0FBFC" transform="translate(222.34375,98.83203125)"/>
<path d="M0 0 C0.66 0 1.32 0 2 0 C1.16840292 7.1615184 0.35779182 14.11803008 -1.625 21.0625 C-3.42659641 27.698531 -3.27274382 34.17130298 -3 41 C-4.32 41 -5.64 41 -7 41 C-7.33 41.99 -7.66 42.98 -8 44 C-12.95 44.495 -12.95 44.495 -18 45 C-17.2575 44.4225 -16.515 43.845 -15.75 43.25 C-10.27986118 39.07683243 -10.27986118 39.07683243 -7.76171875 33.01171875 C-7.64061998 29.21941528 -7.58757731 26.72173971 -9.5 23.375 C-12.24540448 20.76686574 -15.08970718 18.29999888 -17.9609375 15.83203125 C-20.91542792 13.17751783 -23.90826483 10.39906966 -26 7 C-26 5.68 -26 4.36 -26 3 C-24.68 2.67 -23.36 2.34 -22 2 C-21.56429687 2.5775 -21.12859375 3.155 -20.6796875 3.75 C-17.08925518 8.5202827 -17.08925518 8.5202827 -11.75 10.5625 C-8.92746091 10.04232058 -8.92746091 10.04232058 -6 9 C-6 6.36 -6 3.72 -6 1 C-5.34 1.33 -4.68 1.66 -4 2 C-3.375 4.0625 -3.375 4.0625 -3 6 C-2.34 6 -1.68 6 -1 6 C-0.67 4.02 -0.34 2.04 0 0 Z " fill="#10AAEE" transform="translate(233,102)"/>
<path d="M0 0 C-0.99357256 10.33315459 -2.41993278 20.41993278 -10 28 C-13.93672752 28.61237984 -15.54330259 28.30777434 -18.875 26.0625 C-21.75976303 21.9050474 -21.87060608 18.91089451 -21 14 C-18.38068784 6.97548103 -13.56296784 4.26504911 -7 1 C-4 0 -4 0 0 0 Z " fill="#03BDF0" transform="translate(102,282)"/>
<path d="M0 0 C2.43868168 -0.1079859 4.87259133 -0.18726589 7.3125 -0.25 C8.00279297 -0.28351563 8.69308594 -0.31703125 9.40429688 -0.3515625 C12.55065986 -0.41236178 14.47570724 -0.43972941 16.9375 1.625 C18.25606375 4.5723778 18.51249484 7.02990502 18.6875 10.25 C18.78611328 11.86648438 18.78611328 11.86648438 18.88671875 13.515625 C18.92410156 14.33546875 18.96148437 15.1553125 19 16 C20.423125 15.9690625 20.423125 15.9690625 21.875 15.9375 C25 16 25 16 27 17 C27 17.66 27 18.32 27 19 C25.741875 19.04125 24.48375 19.0825 23.1875 19.125 C22.47980469 19.14820313 21.77210938 19.17140625 21.04296875 19.1953125 C19 19 19 19 16 17 C15.78724245 14.16766514 16.00646322 11.46137749 16.1875 8.62890625 C16.24132737 5.97340113 16.24132737 5.97340113 14.625 4.21484375 C11.10476431 1.58312909 8.34085644 1.77547294 4 2 C1.82143186 2.95327906 1.82143186 2.95327906 0 4 C-0.47189072 11.50556308 -0.47189072 11.50556308 3 18 C3.99 18.66 4.98 19.32 6 20 C4.22728612 26.16420961 2.62045569 31.46568102 -2.875 35.3125 C-5.70183807 36.22706526 -8.04976194 36.25654244 -11 36 C-11.66 35.34 -12.32 34.68 -13 34 C-12.56410979 30.05623143 -11.18120073 26.37839074 -9.9375 22.625 C-8.04819828 16.57375825 -6.95662642 12.13012075 -9 6 C-7.02 6 -5.04 6 -3 6 C-2.01 4.02 -1.02 2.04 0 0 Z " fill="#0FA3F1" transform="translate(287,261)"/>
<path d="M0 0 C0.99 0 1.98 0 3 0 C3.12375 0.804375 3.2475 1.60875 3.375 2.4375 C3.58125 3.283125 3.7875 4.12875 4 5 C4.66 5.33 5.32 5.66 6 6 C6.66 5.34 7.32 4.68 8 4 C10.0625 4.1875 10.0625 4.1875 12 5 C12.33 5.99 12.66 6.98 13 8 C11.69791204 10.02048131 10.36011609 12.01811655 9 14 C6.59549435 19.86361903 6.6741045 25.47333669 6.5390625 31.734375 C6 35 6 35 4.1640625 36.4453125 C1.39084241 37.15613787 -1.15053039 37.12952135 -4 37 C-7.06393651 27.80819047 -4.57280068 18.6581739 -1 10 C-0.6184375 9.29359375 -0.236875 8.5871875 0.15625 7.859375 C1.41776039 5.07937987 0.65872944 2.89840952 0 0 Z " fill="#01A6F8" transform="translate(252,260)"/>
<path d="M0 0 C0.19335938 0.61488281 0.38671875 1.22976563 0.5859375 1.86328125 C0.84632813 2.67152344 1.10671875 3.47976563 1.375 4.3125 C1.63023437 5.11300781 1.88546875 5.91351563 2.1484375 6.73828125 C2.98831811 9.22724528 2.98831811 9.22724528 5 12 C4.79537889 18.13863317 3.44586545 21.93255081 0 27 C-3 29 -3 29 -5.5 28.9375 C-8 28 -8 28 -9.8125 26 C-11.70437981 21.22051417 -11.89327091 16.77570057 -10.30859375 11.8515625 C-8.73049982 8.40484688 -4.30245729 0 0 0 Z " fill="#03AEF4" transform="translate(206,268)"/>
<path d="M0 0 C-0.42454532 5.94363449 -1.48556918 11.5930909 -2.875 17.375 C-3.03645508 18.07689453 -3.19791016 18.77878906 -3.36425781 19.50195312 C-4.9624531 25.92576721 -4.9624531 25.92576721 -8 28 C-10.5625 28.3125 -10.5625 28.3125 -13 28 C-15 26 -15 26 -15.4375 22.625 C-15.24146524 15.91080955 -12.5557265 9.00871084 -8.21484375 3.8984375 C-3.86374408 0 -3.86374408 0 0 0 Z " fill="#05B5F0" transform="translate(160,107)"/>
<path d="M0 0 C0.66 0.99 1.32 1.98 2 3 C1.67 3.99 1.34 4.98 1 6 C-1.5625 7.1875 -1.5625 7.1875 -4 8 C-4.19859326 11.57467872 -4.13637125 14.04977304 -2 17 C0.53770003 18.28254644 0.53770003 18.28254644 3 19 C3.33 18.01 3.66 17.02 4 16 C4.99 16.66 5.98 17.32 7 18 C9.32108669 18.70812814 11.65377147 19.38024152 14 20 C15.4694152 24.40824559 16.17016493 29.57791189 14.10546875 33.8515625 C13.14339143 35.28617956 12.07906353 36.65117059 11 38 C10.34 37.67 9.68 37.34 9 37 C9.66 36.13375 10.32 35.2675 11 34.375 C13.14636774 30.75300444 13.73147268 29.11453382 13 25 C11.63926464 22.91313108 11.63926464 22.91313108 9 22 C4.76067813 21.5867809 1.0532022 21.6489326 -3 23 C-3.70394612 24.31403276 -4.36345658 25.6520257 -5 27 C-7.621992 30.79736773 -9.55965358 32.64322748 -14 34 C-13.33214938 29.00290596 -11.98162171 24.48173521 -10.3125 19.75 C-9.91865112 18.63044922 -9.91865112 18.63044922 -9.5168457 17.48828125 C-7.29031846 11.37972271 -4.6781511 4.6781511 0 0 Z " fill="#0FA6EC" transform="translate(264,80)"/>
<path d="M0 0 C-1.00486536 5.66271186 -2.23656153 10.9944835 -4.26171875 16.37890625 C-5.12462804 19.1363572 -5.12462804 19.1363572 -5.33203125 22.65234375 C-6.3782488 32.59629939 -6.3782488 32.59629939 -9.56884766 35.35791016 C-13.98458365 38.07449561 -19.75177561 41 -25 41 C-24.67 39.68 -24.34 38.36 -24 37 C-22.68 37.33 -21.36 37.66 -20 38 C-20 37.34 -20 36.68 -20 36 C-18.68 36 -17.36 36 -16 36 C-14.5393715 33.35261084 -14 32.10551666 -14 29 C-12.68 29.33 -11.36 29.66 -10 30 C-8.68 23.4 -7.36 16.8 -6 10 C-5.34 10 -4.68 10 -4 10 C-3.34 7.03 -2.68 4.06 -2 1 C-15.95189576 0.97038036 -15.95189576 0.97038036 -29 5 C-30.35515926 7.4436406 -30.62597053 9.16806262 -31 12 C-31.7425 12.12375 -32.485 12.2475 -33.25 12.375 C-35.93214262 12.98457787 -37.72480219 13.47076868 -40 15 C-40.91599427 17.40404738 -40.91599427 17.40404738 -41.25 20.125 C-41.39953125 21.03507812 -41.5490625 21.94515625 -41.703125 22.8828125 C-41.85007812 23.93082031 -41.85007812 23.93082031 -42 25 C-42.33 25 -42.66 25 -43 25 C-43.3221077 18.96346301 -43.56806924 14.16754855 -40 9 C-29.40557828 -1.59442172 -13.86691258 -1.51797564 0 0 Z " fill="#29B8DF" transform="translate(111,235)"/>
<path d="M0 0 C1.18771723 3.42943519 0.80226223 5.37784675 -0.4375 8.75 C-0.86869141 9.94882812 -0.86869141 9.94882812 -1.30859375 11.171875 C-1.65083984 12.07679688 -1.65083984 12.07679688 -2 13 C-0.13794922 12.89558594 -0.13794922 12.89558594 1.76171875 12.7890625 C3.40359158 12.73276972 5.04552311 12.67817119 6.6875 12.625 C7.50412109 12.57472656 8.32074219 12.52445312 9.16210938 12.47265625 C15.08274148 12.32883523 15.08274148 12.32883523 17.65161133 14.20849609 C21.15660647 18.21547406 22.04120092 21.94451392 23 27 C23.04898438 26.36191406 23.09796875 25.72382813 23.1484375 25.06640625 C23.22320312 24.24011719 23.29796875 23.41382813 23.375 22.5625 C23.44460937 21.73878906 23.51421875 20.91507812 23.5859375 20.06640625 C23.72257812 19.38449219 23.85921875 18.70257813 24 18 C24.66 17.67 25.32 17.34 26 17 C25.9278125 17.53882813 25.855625 18.07765625 25.78125 18.6328125 C25.00216117 25.5364052 24.82740932 32.43434388 24.75 39.375 C24.72873047 40.33809082 24.70746094 41.30118164 24.68554688 42.29345703 C24.63190822 49.14880618 24.63190822 49.14880618 28 55 C30.58120066 56.29060033 32.49419829 56.13272333 35.375 56.125 C36.33148438 56.12757813 37.28796875 56.13015625 38.2734375 56.1328125 C40.68140854 56.01551878 42.69990068 55.68675951 45 55 C44.34 56.65 43.68 58.3 43 60 C42.43023437 59.82984375 41.86046875 59.6596875 41.2734375 59.484375 C38.89795402 58.97825824 37.03636859 59.06385927 34.625 59.25 C31.12660348 59.30187079 29.27959921 58.92393301 26.5625 56.6875 C23.29610201 53.26176552 21.77432599 51.22909535 21.5859375 46.55078125 C21.54726562 45.70322266 21.50859375 44.85566406 21.46875 43.98242188 C21.4378125 43.10134766 21.406875 42.22027344 21.375 41.3125 C21.33632812 40.41982422 21.29765625 39.52714844 21.2578125 38.60742188 C21.16359782 36.4051538 21.07798412 34.20289278 21 32 C20.37351563 31.95101563 19.74703125 31.90203125 19.1015625 31.8515625 C18.28429687 31.77679688 17.46703125 31.70203125 16.625 31.625 C15.81289062 31.55539062 15.00078125 31.48578125 14.1640625 31.4140625 C12 31 12 31 10 29 C13.3 29.33 16.6 29.66 20 30 C19.55807881 22.4754454 19.55807881 22.4754454 16 16 C12.28720531 14.76240177 8.68693654 14.64391103 4.8125 14.4375 C4.06291016 14.39431641 3.31332031 14.35113281 2.54101562 14.30664062 C0.69421625 14.20077315 -1.15286834 14.0999024 -3 14 C-2.48594831 9.03083364 -1.76615118 4.70973649 0 0 Z " fill="#29B4E1" transform="translate(127,250)"/>
<path d="M0 0 C0.63808594 0.33 1.27617188 0.66 1.93359375 1 C6.05337595 2.34352133 9.76603691 2.13870744 14.0625 2 C22.63372866 1.72461916 22.63372866 1.72461916 27 4 C29.70816654 4.1664394 32.29721319 4.23401535 35 4.1875 C35.7115625 4.18685547 36.423125 4.18621094 37.15625 4.18554688 C40.59803743 4.15665127 43.69256176 3.93859734 47 3 C49.33300933 2.96111651 51.66709801 2.9551365 54 3 C54.495 3.99 54.495 3.99 55 5 C53.989375 4.95875 52.97875 4.9175 51.9375 4.875 C48.04315165 4.83208824 48.04315165 4.83208824 44.625 6 C37.79361236 7.88452073 31.5985413 6.95891554 24.6875 6 C2.16471007 3.09366703 -20.55786647 3.22703978 -41 14 C-41.33 13.01 -41.66 12.02 -42 11 C-40.68 11 -39.36 11 -38 11 C-38 10.34 -38 9.68 -38 9 C-36.68 8.67 -35.36 8.34 -34 8 C-34.33 7.34 -34.66 6.68 -35 6 C-34.05125 6.061875 -33.1025 6.12375 -32.125 6.1875 C-28.94407839 6.20019829 -26.44183165 5.58546251 -23.4375 4.5625 C-17.96654042 2.76694624 -12.63288514 2.47237084 -6.90625 2.2109375 C-4.06267758 2.19021066 -4.06267758 2.19021066 -2 1 C-1.34 1.33 -0.68 1.66 0 2 C0 1.34 0 0.68 0 0 Z " fill="#24B5DE" transform="translate(107,218)"/>
<path d="M0 0 C0.33 0 0.66 0 1 0 C1.03996094 0.60585937 1.07992187 1.21171875 1.12109375 1.8359375 C2.23573381 10.78057993 7.25394624 15.64582224 13.703125 21.5625 C15.9101802 23.59197605 16.93416425 24.60498549 17.4375 27.625 C17 30 17 30 15 33 C12.6171875 33.29296875 12.6171875 33.29296875 9.875 33.1875 C8.50988281 33.14689453 8.50988281 33.14689453 7.1171875 33.10546875 C6.41851562 33.07066406 5.71984375 33.03585938 5 33 C4.67 31.68 4.34 30.36 4 29 C4.66 28.649375 5.32 28.29875 6 27.9375 C8.41103961 26.03442858 8.41103961 26.03442858 8.25 22.3125 C8.1675 21.219375 8.085 20.12625 8 19 C3.50343896 16.75171948 -0.07872966 16.83317728 -5 17 C-5 16.34 -5 15.68 -5 15 C-2.03 15 0.94 15 4 15 C2.16666667 11.83333333 2.16666667 11.83333333 -1 10 C-0.67 6.7 -0.34 3.4 0 0 Z " fill="#26ABE0" transform="translate(191,105)"/>
<path d="M0 0 C0.33 0 0.66 0 1 0 C1.02703381 1.93742341 1.04641125 3.87495479 1.0625 5.8125 C1.07410156 6.89144531 1.08570312 7.97039062 1.09765625 9.08203125 C1 12 1 12 0 15 C-0.01334036 16.86231423 0.03247 18.72532959 0.11328125 20.5859375 C0.14357422 21.68164062 0.17386719 22.77734375 0.20507812 23.90625 C0.27647233 26.21163389 0.36750408 28.51649643 0.47851562 30.8203125 C0.65675983 39.02918095 0.65675983 39.02918095 -1.28759766 41.90332031 C-3.40965528 43.73328067 -5.13329192 45 -8 45 C-8 44.01 -8 43.02 -8 42 C-8.66 42 -9.32 42 -10 42 C-10.33 42.66 -10.66 43.32 -11 44 C-11.33 43.67 -11.66 43.34 -12 43 C-13.99958364 42.95919217 -16.00045254 42.95745644 -18 43 C-16.515 42.505 -16.515 42.505 -15 42 C-15.639375 41.0925 -16.27875 40.185 -16.9375 39.25 C-19.54869068 35.1353965 -20.13015448 32.26286354 -20.09765625 27.453125 C-20.09443359 26.60878906 -20.09121094 25.76445312 -20.08789062 24.89453125 C-20.07951172 24.02183594 -20.07113281 23.14914063 -20.0625 22.25 C-20.05798828 21.36183594 -20.05347656 20.47367188 -20.04882812 19.55859375 C-20.037074 17.37232671 -20.02064249 15.18619821 -20 13 C-19.67 13 -19.34 13 -19 13 C-18.96261719 14.22976562 -18.92523438 15.45953125 -18.88671875 16.7265625 C-18.82102972 18.35940401 -18.75458341 19.99221518 -18.6875 21.625 C-18.65366211 22.83736328 -18.65366211 22.83736328 -18.61914062 24.07421875 C-18.3883135 29.23635269 -17.87390503 34.12609497 -14 38 C-8.88059284 38.63535145 -8.88059284 38.63535145 -4.40209961 36.77001953 C-2.60947712 34.50700141 -2.60543078 33.21731582 -2.55859375 30.3515625 C-2.53337646 29.43391113 -2.50815918 28.51625977 -2.48217773 27.57080078 C-2.46743408 26.59868652 -2.45269043 25.62657227 -2.4375 24.625 C-2.19727312 16.24648873 -1.60182747 8.24241318 0 0 Z " fill="#11B7E8" transform="translate(120,109)"/>
<path d="M0 0 C1.80030122 2.70045182 2.93377066 5.06677881 4.125 8.0625 C4.47820312 8.94035156 4.83140625 9.81820312 5.1953125 10.72265625 C6 13 6 13 6 15 C5.01 14.67 4.02 14.34 3 14 C3 16.64 3 19.28 3 22 C2.01 22.33 1.02 22.66 0 23 C-0.99 22.34 -1.98 21.68 -3 21 C-4.11375 21.2475 -4.11375 21.2475 -5.25 21.5 C-9.04995212 22.19090039 -11.45837883 21.4701069 -15 20 C-16.4375 17.375 -16.4375 17.375 -17 15 C-15.948125 15.99 -15.948125 15.99 -14.875 17 C-12.14004699 19.19880424 -12.14004699 19.19880424 -8.875 19.5625 C-5.86839536 19.30576129 -5.86839536 19.30576129 -4.42578125 16.921875 C-2.77133894 13.53140143 -2.03843278 10.38630036 -1.3125 6.6875 C-1.06113281 5.43324219 -0.80976563 4.17898437 -0.55078125 2.88671875 C-0.36902344 1.93410156 -0.18726563 0.98148438 0 0 Z " fill="#09A6EF" transform="translate(247,128)"/>
<path d="M0 0 C1.32 0.33 2.64 0.66 4 1 C3.54109375 1.40089844 3.0821875 1.80179688 2.609375 2.21484375 C-3.31619209 7.70470738 -6.59208753 12.56858726 -7.34375 20.734375 C-7.70324206 29.38438438 -7.70324206 29.38438438 -4 37 C-1.13391871 38.43304064 0.81300783 38.30644155 4 38 C7.32808239 36.11586085 7.32808239 36.11586085 10 34 C9.67 31.69 9.34 29.38 9 27 C9.66 27 10.32 27 11 27 C13.56687367 30.8503105 12.83288724 32.58569763 12 37 C9.525 37.495 9.525 37.495 7 38 C7 38.66 7 39.32 7 40 C5.22950311 40.05410687 3.45853151 40.09284119 1.6875 40.125 C0.20830078 40.15980469 0.20830078 40.15980469 -1.30078125 40.1953125 C-4 40 -4 40 -7 38 C-7 37.34 -7 36.68 -7 36 C-7.66 36 -8.32 36 -9 36 C-9.1173794 32.50028801 -9.18763961 29.00109045 -9.25 25.5 C-9.28351562 24.51773437 -9.31703125 23.53546875 -9.3515625 22.5234375 C-9.43965057 15.916832 -8.43081627 11.61176754 -5 6 C-4.32307368 4.67184603 -3.65369374 3.33974128 -3 2 C-2.01 2 -1.02 2 0 2 C0 1.34 0 0.68 0 0 Z " fill="#20BDE0" transform="translate(60,233)"/>
<path d="M0 0 C1.65 0 3.3 0 5 0 C-0 5 -0 5 -2.5625 7.4375 C-7.26010426 12.37600704 -9.26865325 15.46650739 -9.5 22.375 C-9.29003152 27.96143411 -8.84075239 32.72577687 -5 37 C-2.13622708 39.0110488 0.80566589 40.58029595 4 42 C0.37673261 43.2077558 -0.64146369 42.54311128 -4 41 C-4 40.34 -4 39.68 -4 39 C-4.99 38.67 -5.98 38.34 -7 38 C-7 37.34 -7 36.68 -7 36 C-7.66 36 -8.32 36 -9 36 C-9.12375 35.360625 -9.2475 34.72125 -9.375 34.0625 C-9.58125 33.381875 -9.7875 32.70125 -10 32 C-10.66 31.67 -11.32 31.34 -12 31 C-12.4140625 27.83984375 -12.4140625 27.83984375 -12.625 23.9375 C-12.69976562 22.64714844 -12.77453125 21.35679687 -12.8515625 20.02734375 C-12.90054688 19.02832031 -12.94953125 18.02929688 -13 17 C-12.34 17 -11.68 17 -11 17 C-10.01 13.7 -9.02 10.4 -8 7 C-7.34 7 -6.68 7 -6 7 C-6 6.01 -6 5.02 -6 4 C-4.35 4 -2.7 4 -1 4 C-0.67 2.68 -0.34 1.36 0 0 Z " fill="#27BEDF" transform="translate(81,276)"/>
<path d="M0 0 C7.17196753 0.06701268 14.34339049 0.15682477 21.51489258 0.26245117 C23.95427983 0.29569417 26.39374388 0.32372801 28.83325195 0.34643555 C32.34099032 0.37999217 35.84802525 0.43231049 39.35546875 0.48828125 C40.44522507 0.49467117 41.53498138 0.5010611 42.65776062 0.50764465 C52.39146466 0.69641131 52.39146466 0.69641131 56 4 C56.48828125 6.91796875 56.48828125 6.91796875 56.3125 10.1875 C56.26738281 11.27417969 56.22226563 12.36085938 56.17578125 13.48046875 C56.08876953 14.72763672 56.08876953 14.72763672 56 16 C55.01 16.33 54.02 16.66 53 17 C53.16371094 16.43796875 53.32742187 15.8759375 53.49609375 15.296875 C54.02864997 12.86940944 54.09898681 10.73110319 54.0625 8.25 C54.04166667 6.83333333 54.02083333 5.41666667 54 4 C47.38221763 3.1465689 40.94545096 2.86564777 34.27734375 2.90234375 C33.29125626 2.9037587 32.30516876 2.90517365 31.28919983 2.90663147 C28.17193432 2.9121823 25.05474342 2.9247254 21.9375 2.9375 C19.81054792 2.94252136 17.6835947 2.94708315 15.55664062 2.95117188 C10.37106546 2.96213558 5.18554533 2.97936575 0 3 C0 2.01 0 1.02 0 0 Z " fill="#22B0DE" transform="translate(101,60)"/>
<path d="M0 0 C1.8125 0.125 1.8125 0.125 4 1 C6.28905989 4.67884625 7 6.61551956 7 11 C10.12474627 9.36526484 10.12474627 9.36526484 10.6875 6.875 C10.790625 6.25625 10.89375 5.6375 11 5 C11.66 5 12.32 5 13 5 C13.33 4.34 13.66 3.68 14 3 C12.66666667 9.66666667 11.33333333 16.33333333 10 23 C8.35 23.33 6.7 23.66 5 24 C5.06960937 22.37191406 5.06960937 22.37191406 5.140625 20.7109375 C5.17816487 19.26565269 5.21456264 17.82033789 5.25 16.375 C5.28351563 15.66214844 5.31703125 14.94929688 5.3515625 14.21484375 C5.44784945 8.96720471 4.33400375 6.23749332 1 2 C0.67 1.34 0.34 0.68 0 0 Z " fill="#1AA8E7" transform="translate(220,261)"/>
<path d="M0 0 C-0.11509661 1.41750563 -0.24253658 2.83401169 -0.375 4.25 C-0.44460937 5.03890625 -0.51421875 5.8278125 -0.5859375 6.640625 C-1 9 -1 9 -3 13 C-2.67 10.03 -2.34 7.06 -2 4 C-2.7425 4.78375 -3.485 5.5675 -4.25 6.375 C-6.54433318 8.56504531 -8.12158858 9.82731386 -11 11 C-10.979375 11.804375 -10.95875 12.60875 -10.9375 13.4375 C-11 16 -11 16 -12 17 C-12.23192865 18.51469448 -12.41215238 20.03754562 -12.5625 21.5625 C-12.64628906 22.38878906 -12.73007813 23.21507812 -12.81640625 24.06640625 C-12.87699219 24.70449219 -12.93757812 25.34257812 -13 26 C-11.02 26 -9.04 26 -7 26 C-7.33 26.66 -7.66 27.32 -8 28 C-10.375 28.125 -10.375 28.125 -13 28 C-15 26 -15 26 -15.4375 22.625 C-15.24146524 15.91080955 -12.5557265 9.00871084 -8.21484375 3.8984375 C-3.86374408 0 -3.86374408 0 0 0 Z " fill="#24B1E2" transform="translate(160,107)"/>
<path d="M0 0 C0.66 0 1.32 0 2 0 C1.95359375 1.22976562 1.9071875 2.45953125 1.859375 3.7265625 C1.82183964 5.3593506 1.78544138 6.99216511 1.75 8.625 C1.71648437 9.43324219 1.68296875 10.24148437 1.6484375 11.07421875 C1.55950107 16.54380916 2.24214421 19.72970933 6 24 C10.21367126 26.92170392 15.072283 26.63485924 20 26 C23.34817401 24.72335811 26.33870898 23.32258204 28 20 C28.66 20 29.32 20 30 20 C30.66 21.32 31.32 22.64 32 24 C30.68 24 29.36 24 28 24 C27.01 25.98 26.02 27.96 25 30 C24.01 29.67 23.02 29.34 22 29 C20.66636297 28.85596652 19.32781954 28.75409577 17.98828125 28.68359375 C17.23095703 28.64169922 16.47363281 28.59980469 15.69335938 28.55664062 C14.51483398 28.49766602 14.51483398 28.49766602 13.3125 28.4375 C12.51521484 28.39431641 11.71792969 28.35113281 10.89648438 28.30664062 C8.93118553 28.20072632 6.96561504 28.09987449 5 28 C4.67 26.68 4.34 25.36 4 24 C3.34 24 2.68 24 2 24 C-0.16926659 20.74610012 -0.24080049 19.86604043 -0.1953125 16.11328125 C-0.18886719 15.17548828 -0.18242188 14.23769531 -0.17578125 13.27148438 C-0.15902344 12.29501953 -0.14226562 11.31855469 -0.125 10.3125 C-0.11597656 9.32443359 -0.10695313 8.33636719 -0.09765625 7.31835938 C-0.0740843 4.87866235 -0.04118022 2.43945303 0 0 Z " fill="#28B6E6" transform="translate(127,121)"/>
<path d="M0 0 C0.33 0 0.66 0 1 0 C1.33 1.98 1.66 3.96 2 6 C2.66 6 3.32 6 4 6 C4 7.65 4 9.3 4 11 C4.66 11 5.32 11 6 11 C6.144375 10.38125 6.28875 9.7625 6.4375 9.125 C7 7 7 7 8 5 C8.66 5.33 9.32 5.66 10 6 C9.09648559 7.63234937 8.1766431 9.25566824 7.25 10.875 C6.73953125 11.77992188 6.2290625 12.68484375 5.703125 13.6171875 C3.91541059 16.11834757 2.87375688 17.0156817 0 18 C-0.99 18 -1.98 18 -3 18 C-3.42765417 11.58518742 -1.85743168 6.11404596 0 0 Z " fill="#0EB1EC" transform="translate(174,118)"/>
<path d="M0 0 C0.66 0.99 1.32 1.98 2 3 C1.34 3 0.68 3 0 3 C-1.1040989 6.2334325 -2.13084696 9.46181282 -3.0625 12.75 C-4 16 -4 16 -5 18 C-5.99 18 -6.98 18 -8 18 C-8.33 18.66 -8.66 19.32 -9 20 C-9.33 19.01 -9.66 18.02 -10 17 C-10.886875 17.66 -11.77375 18.32 -12.6875 19 C-18.033296 22.13678939 -24.01137726 21.32419612 -30 21 C-30 20.34 -30 19.68 -30 19 C-29.154375 18.98582031 -28.30875 18.97164063 -27.4375 18.95703125 C-20.70748982 18.67406491 -15.93162616 18.17315639 -10.48828125 14.05859375 C-9 13 -9 13 -7 13 C-6.72414063 12.43796875 -6.44828125 11.8759375 -6.1640625 11.296875 C-4.95631972 8.91381206 -3.67823191 6.5820992 -2.375 4.25 C-1.92898437 3.45078125 -1.48296875 2.6515625 -1.0234375 1.828125 C-0.68570313 1.22484375 -0.34796875 0.6215625 0 0 Z " fill="#1BB7E5" transform="translate(116,300)"/>
<path d="M0 0 C0.19335938 0.61488281 0.38671875 1.22976563 0.5859375 1.86328125 C0.84632813 2.67152344 1.10671875 3.47976563 1.375 4.3125 C1.63023437 5.11300781 1.88546875 5.91351563 2.1484375 6.73828125 C2.98831811 9.22724528 2.98831811 9.22724528 5 12 C4.96856707 14.73990408 4.44521663 17.28417854 4 20 C3.67 20 3.34 20 3 20 C2.67 17.36 2.34 14.72 2 12 C1.01 11.67 0.02 11.34 -1 11 C-1.66 10.34 -2.32 9.68 -3 9 C-6.27773504 9.75150023 -6.27773504 9.75150023 -8 13 C-8.38499891 14.65549531 -8.72793135 16.3222433 -9 18 C-9.66 18 -10.32 18 -11 18 C-10.5961462 12.9518275 -6.80577523 0 0 0 Z " fill="#1AABE4" transform="translate(206,268)"/>
<path d="M0 0 C2.58238298 -0.33214891 4.85750482 -0.46419797 7.4375 -0.4375 C8.11876953 -0.45748047 8.80003906 -0.47746094 9.50195312 -0.49804688 C12.61138794 -0.4950014 14.51711103 -0.40957587 16.9296875 1.63671875 C18.26234175 4.57925825 18.51244181 7.02892923 18.6875 10.25 C18.78611328 11.86648438 18.78611328 11.86648438 18.88671875 13.515625 C18.92410156 14.33546875 18.96148437 15.1553125 19 16 C20.423125 15.9690625 20.423125 15.9690625 21.875 15.9375 C25 16 25 16 27 17 C27 17.66 27 18.32 27 19 C25.741875 19.04125 24.48375 19.0825 23.1875 19.125 C22.47980469 19.14820313 21.77210938 19.17140625 21.04296875 19.1953125 C19 19 19 19 16 17 C15.78724245 14.16766514 16.00646322 11.46137749 16.1875 8.62890625 C16.24132737 5.97340113 16.24132737 5.97340113 14.625 4.21484375 C11.10476431 1.58312909 8.34085644 1.77547294 4 2 C2.02 2.99 2.02 2.99 0 4 C0 7.63 0 11.26 0 15 C-0.66 15 -1.32 15 -2 15 C-2.05406122 13.06280622 -2.09282025 11.12518079 -2.125 9.1875 C-2.14820313 8.10855469 -2.17140625 7.02960938 -2.1953125 5.91796875 C-2 3 -2 3 0 0 Z " fill="#22A1E5" transform="translate(287,261)"/>
<path d="M0 0 C0.33 0 0.66 0 1 0 C1.27371428 9.1846347 0.72608908 18.0452957 -0.37646484 27.15722656 C-0.85919847 31.36307445 -1.16036489 34.8623831 0 39 C0.33944795 40.99897128 0.67421616 42.99875639 1 45 C-2 43 -2 43 -3 40 C-4.05120812 26.46649177 -2.74586947 13.23901351 0 0 Z " fill="#D5F9FE" transform="translate(154,260)"/>
<path d="M0 0 C6.21133256 -0.04938976 12.42255112 -0.08571476 18.6340332 -0.10986328 C20.74766022 -0.11992894 22.8612733 -0.13358257 24.97485352 -0.15087891 C28.01061442 -0.1751023 31.04619143 -0.18647738 34.08203125 -0.1953125 C35.02899368 -0.20563507 35.97595612 -0.21595764 36.95161438 -0.22659302 C37.83230087 -0.22674408 38.71298737 -0.22689514 39.62036133 -0.22705078 C40.39535477 -0.231492 41.17034821 -0.23593323 41.96882629 -0.24050903 C44 0 44 0 47 2 C43.25019209 2.86945811 39.77551828 3.12865741 35.9296875 3.1328125 C34.78628906 3.13410156 33.64289063 3.13539062 32.46484375 3.13671875 C31.28019531 3.13285156 30.09554687 3.12898438 28.875 3.125 C27.68261719 3.12886719 26.49023438 3.13273437 25.26171875 3.13671875 C24.12089844 3.13542969 22.98007813 3.13414063 21.8046875 3.1328125 C20.76296387 3.13168457 19.72124023 3.13055664 18.64794922 3.12939453 C16 3 16 3 13 2 C10.77425665 1.77548542 8.54418481 1.59217122 6.3125 1.4375 C5.13300781 1.35371094 3.95351562 1.26992188 2.73828125 1.18359375 C1.83464844 1.12300781 0.93101563 1.06242187 0 1 C0 0.67 0 0.34 0 0 Z " fill="#CEF9FE" transform="translate(106,62)"/>
<path d="M0 0 C1.20272819 2.40545638 1.10071472 3.94996953 1.0625 6.625 C1.05347656 7.44226563 1.04445313 8.25953125 1.03515625 9.1015625 C1.02355469 9.72804687 1.01195312 10.35453125 1 11 C0.01 11.495 0.01 11.495 -1 12 C-1.33 12.99 -1.66 13.98 -2 15 C-4.50390625 17.04296875 -4.50390625 17.04296875 -7.5625 19.1875 C-8.57441406 19.90292969 -9.58632813 20.61835938 -10.62890625 21.35546875 C-11.41136719 21.89816406 -12.19382812 22.44085938 -13 23 C-13.66 22.67 -14.32 22.34 -15 22 C-14.49210937 21.67128906 -13.98421875 21.34257812 -13.4609375 21.00390625 C-8.0028618 17.23231461 -3.89908508 13.03976059 -1 7 C-1 5.68 -1 4.36 -1 3 C-3.24224658 2.41036322 -3.24224658 2.41036322 -6 3 C-8.276147 5.12689146 -10.1458722 7.5023433 -12 10 C-12.66 8.68 -13.32 7.36 -14 6 C-12.35 5.67 -10.7 5.34 -9 5 C-9 3.68 -9 2.36 -9 1 C-5.92677456 0.08941469 -3.19902639 -0.08886184 0 0 Z " fill="#1FA1E6" transform="translate(290,123)"/>
<path d="M0 0 C-0.66 2.31 -1.32 4.62 -2 7 C-2.7425 7.12375 -3.485 7.2475 -4.25 7.375 C-6.93214262 7.98457787 -8.72480219 8.47076868 -11 10 C-11.91599427 12.40404738 -11.91599427 12.40404738 -12.25 15.125 C-12.39953125 16.03507812 -12.5490625 16.94515625 -12.703125 17.8828125 C-12.85007812 18.93082031 -12.85007812 18.93082031 -13 20 C-13.33 20 -13.66 20 -14 20 C-14.3221077 13.96346301 -14.56806924 9.16754855 -11 4 C-4.92900609 -1.47870183 -4.92900609 -1.47870183 0 0 Z " fill="#12BEE9" transform="translate(82,240)"/>
<path d="M0 0 C0.33 0.66 0.66 1.32 1 2 C0.36729133 3.34977849 -0.30062468 4.68352881 -1 6 C-1 6.66 -1 7.32 -1 8 C-2.8125 8.625 -2.8125 8.625 -5 9 C-5.99 8.34 -6.98 7.68 -8 7 C-6.8905928 10.48670834 -5.73662334 13.77484237 -4 17 C-2.35 17 -0.7 17 1 17 C1 16.34 1 15.68 1 15 C2.32 15.33 3.64 15.66 5 16 C2 18 2 18 -1.3125 18.75 C-5 18 -5 18 -6.7890625 15.87109375 C-11 9.01584716 -11 9.01584716 -11 5 C-7.37 3.35 -3.74 1.7 0 0 Z " fill="#1AA2E7" transform="translate(272,118)"/>
<path d="M0 0 C0.66 0 1.32 0 2 0 C1.79503906 0.96679688 1.59007813 1.93359375 1.37890625 2.9296875 C1.10650329 4.24473628 0.83438328 5.55984368 0.5625 6.875 C0.16224609 8.78925781 0.16224609 8.78925781 -0.24609375 10.7421875 C-2.03701719 20.21376077 -2.2524899 29.79132731 -2.4296875 39.40429688 C-2.460625 40.34208984 -2.4915625 41.27988281 -2.5234375 42.24609375 C-2.54325684 43.08841553 -2.56307617 43.9307373 -2.58349609 44.79858398 C-3.08096315 47.42792773 -3.96049577 48.33134551 -6 50 C-6 48.68 -6 47.36 -6 46 C-5.34 46 -4.68 46 -4 46 C-4.00523682 45.10168457 -4.01047363 44.20336914 -4.01586914 43.27783203 C-4.03289725 39.94937501 -4.04544337 36.62096419 -4.05493164 33.29248047 C-4.05996474 31.8510668 -4.06679173 30.40965824 -4.07543945 28.96826172 C-4.08754983 26.89809915 -4.09323847 24.82800399 -4.09765625 22.7578125 C-4.10289307 21.5114502 -4.10812988 20.26508789 -4.11352539 18.98095703 C-4 16 -4 16 -3 14 C-2.82251866 12.56606347 -2.68108853 11.1275036 -2.5625 9.6875 C-2.20810576 6.14355757 -1.56676512 3.23798125 0 0 Z " fill="#B8F4FE" transform="translate(121,97)"/>
<path d="M0 0 C1.33333333 1.33333333 2.66666667 2.66666667 4 4 C4.99 4.33 5.98 4.66 7 5 C7.33 4.01 7.66 3.02 8 2 C8.99 2.66 9.98 3.32 11 4 C13.32108669 4.70812814 15.65377147 5.38024152 18 6 C19.4694152 10.40824559 20.17016493 15.57791189 18.10546875 19.8515625 C17.14339143 21.28617956 16.07906353 22.65117059 15 24 C14.34 23.67 13.68 23.34 13 23 C13.66 22.13375 14.32 21.2675 15 20.375 C17.16131826 16.72777543 17.63013226 15.14086911 17 11 C16.00608132 8.74617266 16.00608132 8.74617266 14 7 C10.58372468 6.29727224 10.58372468 6.29727224 6.8125 6.25 C4.90404297 6.16492188 4.90404297 6.16492188 2.95703125 6.078125 C1.98121094 6.05234375 1.00539063 6.0265625 0 6 C0 4.02 0 2.04 0 0 Z " fill="#0FA2EE" transform="translate(260,94)"/>
<path d="M0 0 C-4.62 0 -9.24 0 -14 0 C-13.67 1.98 -13.34 3.96 -13 6 C-13.7421875 8.34375 -13.7421875 8.34375 -14.875 10.5 C-16.60142163 14.01832821 -17.59585832 17.05961866 -18 21 C-18.66 21 -19.32 21 -20 21 C-19.38955672 13.36945905 -17.20378179 6.29810526 -15 -1 C-9.42562362 -2.5280637 -5.24670281 -2.6233514 0 0 Z " fill="#29B7E3" transform="translate(137,279)"/>
<path d="M0 0 C0.99 0 1.98 0 3 0 C3.39590347 7.39019811 2.12767046 12.8084943 -2 19 C-3.02938869 22.80032177 -3.10561671 26.38887932 -3.0625 30.3125 C-3.05347656 31.38113281 -3.04445312 32.44976562 -3.03515625 33.55078125 C-3.02355469 34.35902344 -3.01195312 35.16726563 -3 36 C-1.35 36 0.3 36 2 36 C2 36.33 2 36.66 2 37 C0.02 37 -1.96 37 -4 37 C-7.06393651 27.80819047 -4.57280068 18.6581739 -1 10 C-0.6184375 9.29359375 -0.236875 8.5871875 0.15625 7.859375 C1.41776039 5.07937987 0.65872944 2.89840952 0 0 Z " fill="#29A6E1" transform="translate(252,260)"/>
<path d="M0 0 C0.33 0 0.66 0 1 0 C1 4.95 1 9.9 1 15 C-1.95664519 16.4783226 -4.74229737 16.06032783 -8 16 C-8.33 14.02 -8.66 12.04 -9 10 C-6.36 10 -3.72 10 -1 10 C-0.67 6.7 -0.34 3.4 0 0 Z " fill="#12A3E7" transform="translate(257,280)"/>
<path d="M0 0 C0.82313751 2.85980797 1.10040226 5.33028102 1.02734375 8.30078125 C1.01509766 9.11353516 1.00285156 9.92628906 0.99023438 10.76367188 C0.9553187 12.45126277 0.91631348 14.13877443 0.87304688 15.82617188 C0.80393906 20.97673635 1.32130437 25.12190799 3 30 C2.01 30.66 1.02 31.32 0 32 C-0.99 31.34 -1.98 30.68 -3 30 C-2.8453125 29.06800781 -2.690625 28.13601562 -2.53125 27.17578125 C-1.68408921 21.25311309 -1.61256524 15.27053676 -1.39453125 9.29882812 C-1.35714844 8.38939453 -1.31976563 7.47996094 -1.28125 6.54296875 C-1.25095703 5.71821045 -1.22066406 4.89345215 -1.18945312 4.04370117 C-1 2 -1 2 0 0 Z " fill="#05BAED" transform="translate(100,118)"/>
<path d="M0 0 C2.1875 1.4375 2.1875 1.4375 4.5625 4.5 C6.93318108 7.69559938 6.93318108 7.69559938 10.5 8.3125 C11.386875 8.35375 12.27375 8.395 13.1875 8.4375 C13.1875 9.0975 13.1875 9.7575 13.1875 10.4375 C7.83186896 10.87648615 7.83186896 10.87648615 5.1875 10.4375 C3.25 8 3.25 8 2.1875 5.4375 C1.8575 5.1075 1.5275 4.7775 1.1875 4.4375 C0.5275 5.7575 -0.1325 7.0775 -0.8125 8.4375 C-3.43636487 5.37632432 -3.8125 4.70576873 -3.8125 0.4375 C-1.8125 -0.5625 -1.8125 -0.5625 0 0 Z " fill="#24ABE4" transform="translate(210.8125,104.5625)"/>
<path d="M0 0 C1.17755859 -0.00773437 1.17755859 -0.00773437 2.37890625 -0.015625 C4.4375 0.25 4.4375 0.25 6.4375 2.25 C5.76203125 2.29898438 5.0865625 2.34796875 4.390625 2.3984375 C3.49859375 2.47320312 2.6065625 2.54796875 1.6875 2.625 C0.36492187 2.72941406 0.36492187 2.72941406 -0.984375 2.8359375 C-3.57901688 3.25265271 -5.34901535 3.84744636 -7.5625 5.25 C-7.68625 5.848125 -7.81 6.44625 -7.9375 7.0625 C-8.95160365 10.61186277 -11.68141407 12.04321078 -14.5625 14.25 C-15.2225 13.59 -15.8825 12.93 -16.5625 12.25 C-15.82 11.528125 -15.0775 10.80625 -14.3125 10.0625 C-11.56990933 7.35597086 -11.56990933 7.35597086 -9.4375 4.5625 C-6.54734624 0.99797703 -4.46961568 -0.02945381 0 0 Z " fill="#D7F9FE" transform="translate(268.5625,100.75)"/>
<path d="M0 0 C0.33 0 0.66 0 1 0 C1.027193 1.58323688 1.04648306 3.16661062 1.0625 4.75 C1.07410156 5.63171875 1.08570313 6.5134375 1.09765625 7.421875 C1.00826198 9.7818838 0.66912821 11.74498524 0 14 C0.66 14 1.32 14 2 14 C2 13.34 2 12.68 2 12 C2.66 12 3.32 12 4 12 C4 12.66 4 13.32 4 14 C4.99 14.33 5.98 14.66 7 15 C5.25 16.5625 5.25 16.5625 3 18 C0.83031791 17.75203633 -0.44233607 17.55766393 -2 16 C-2.4591096 10.33053029 -2.23160356 5.30005846 0 0 Z " fill="#18AEE7" transform="translate(168,278)"/>
<path d="M0 0 C1.67642578 0.01353516 1.67642578 0.01353516 3.38671875 0.02734375 C6.13303462 0.05081654 8.87890472 0.08365272 11.625 0.125 C11.625 2.105 11.625 4.085 11.625 6.125 C10.635 6.62 10.635 6.62 9.625 7.125 C9.955 5.475 10.285 3.825 10.625 2.125 C0.69592668 1.84961738 -8.57960071 2.58846678 -18.375 4.125 C-18.375 3.465 -18.375 2.805 -18.375 2.125 C-12.39131659 -0.54141331 -6.40977075 -0.09814726 0 0 Z " fill="#CDF9FD" transform="translate(100.375,232.875)"/>
<path d="M0 0 C-3.50897269 4.18423892 -7.08060535 8.19588166 -11 12 C-12.10348268 8.68955197 -11.99444068 6.34493684 -11 3 C-10.34 2.67 -9.68 2.34 -9 2 C-9 1.34 -9 0.68 -9 0 C-5.93109813 -1.53445094 -3.29905734 -0.54984289 0 0 Z " fill="#10B6EB" transform="translate(142,105)"/>
<path d="M0 0 C3.34373475 0.55728913 6.03312999 1.35173889 9 3 C8.34 4.65 7.68 6.3 7 8 C7.99 8 8.98 8 10 8 C10 8.99 10 9.98 10 11 C7.8125 11.5 7.8125 11.5 5 11 C2.11651758 7.65671903 0 4.46253766 0 0 Z " fill="#02A5FA" transform="translate(263,124)"/>
<path d="M0 0 C1.65 0 3.3 0 5 0 C-0 5 -0 5 -2.375 7.1875 C-6.05743926 11.13297064 -8.98909263 15.53136226 -12 20 C-12.33 19.01 -12.66 18.02 -13 17 C-12.34 17 -11.68 17 -11 17 C-10.01 13.7 -9.02 10.4 -8 7 C-7.34 7 -6.68 7 -6 7 C-6 6.01 -6 5.02 -6 4 C-4.35 4 -2.7 4 -1 4 C-0.67 2.68 -0.34 1.36 0 0 Z " fill="#17BCE4" transform="translate(81,276)"/>
<path d="M0 0 C1.32 0.33 2.64 0.66 4 1 C3.54109375 1.40089844 3.0821875 1.80179688 2.609375 2.21484375 C-4.87197145 9.1460912 -7.31225687 15.80989228 -7.921875 25.91015625 C-7.94765625 26.59980469 -7.9734375 27.28945313 -8 28 C-8.33 28 -8.66 28 -9 28 C-9.42992904 19.49695892 -9.59518159 13.29822958 -5 6 C-4.32023923 4.67329449 -3.65021442 3.34143335 -3 2 C-2.01 2 -1.02 2 0 2 C0 1.34 0 0.68 0 0 Z " fill="#29C2E3" transform="translate(60,233)"/>
<path d="M0 0 C0.66 0 1.32 0 2 0 C1.34 4.29 0.68 8.58 0 13 C5.1358421 11.12344231 7.84442256 9.67025461 11 5 C10.67 7.31 10.34 9.62 10 12 C9.34 12 8.68 12 8 12 C7.67 12.66 7.34 13.32 7 14 C0.84765625 14.09765625 0.84765625 14.09765625 -1 14 C-3.04698414 11.95301586 -2.70045693 7.69588759 -3 5 C-2.01 4.67 -1.02 4.34 0 4 C0 2.68 0 1.36 0 0 Z " fill="#D1F7FE" transform="translate(171,123)"/>
<path d="M0 0 C0.33 0 0.66 0 1 0 C0.67 6.6 0.34 13.2 0 20 C-0.66 20 -1.32 20 -2 20 C-2 26.6 -2 33.2 -2 40 C-2.33 40 -2.66 40 -3 40 C-3.3542772 26.29583122 -3.02191845 13.40076931 0 0 Z " fill="#AAF1FD" transform="translate(104,100)"/>
<path d="M0 0 C0.33 0 0.66 0 1 0 C0.57446809 20.72340426 0.57446809 20.72340426 -4 29 C-5.23322843 25.41651556 -4.7721117 22.81302176 -4.00390625 19.140625 C-3.77509766 18.02558594 -3.54628906 16.91054687 -3.31054688 15.76171875 C-3.06369141 14.60285156 -2.81683594 13.44398437 -2.5625 12.25 C-2.19801758 10.48849609 -2.19801758 10.48849609 -1.82617188 8.69140625 C-1.22519202 5.79256223 -0.61619498 2.8956412 0 0 Z " fill="#B8EEFC" transform="translate(235,100)"/>
<path d="M0 0 C0.33 0 0.66 0 1 0 C1.03738281 1.22976562 1.07476562 2.45953125 1.11328125 3.7265625 C1.17897028 5.35940401 1.24541659 6.99221518 1.3125 8.625 C1.34633789 9.83736328 1.34633789 9.83736328 1.38085938 11.07421875 C1.6116865 16.23635269 2.12609497 21.12609497 6 25 C11.6047709 25.21326403 11.6047709 25.21326403 17 24 C16.67 24.99 16.34 25.98 16 27 C14.06372231 27.10807131 12.12572244 27.1856225 10.1875 27.25 C8.56908203 27.31960937 8.56908203 27.31960937 6.91796875 27.390625 C4 27 4 27 2.17578125 25.234375 C0.28492908 21.64112768 -0.12489277 18.48412953 -0.09765625 14.453125 C-0.09443359 13.60878906 -0.09121094 12.76445312 -0.08789062 11.89453125 C-0.07951172 11.02183594 -0.07113281 10.14914063 -0.0625 9.25 C-0.05798828 8.36183594 -0.05347656 7.47367188 -0.04882812 6.55859375 C-0.037074 4.37232671 -0.02064249 2.18619821 0 0 Z " fill="#28B5DC" transform="translate(100,122)"/>
<path d="M0 0 C0.54527344 0.13277344 1.09054688 0.26554687 1.65234375 0.40234375 C5.68625743 1.34703807 9.62144005 2.11836841 13.75 2.5 C17.13254069 2.84889843 20.02275302 3.23225961 23 5 C23.8125 7.125 23.8125 7.125 24 9 C23.0925 8.34 22.185 7.68 21.25 7 C16.85328563 4.43375447 12.83385478 4.75797751 7.8671875 5.0546875 C4.78749208 4.99594672 2.76533975 4.306699 0 3 C0 2.01 0 1.02 0 0 Z " fill="#11A7ED" transform="translate(240,64)"/>
<path d="M0 0 C0.86626039 2.42552909 1.17413108 3.57136965 0.1875 6 C-0.204375 6.66 -0.59625 7.32 -1 8 C-1.268125 8.721875 -1.53625 9.44375 -1.8125 10.1875 C-3 12 -3 12 -5.4375 12.5625 C-6.283125 12.706875 -7.12875 12.85125 -8 13 C-8.515625 13.53625 -9.03125 14.0725 -9.5625 14.625 C-10.036875 15.07875 -10.51125 15.5325 -11 16 C-13.1875 15.6875 -13.1875 15.6875 -15 15 C-13.6696875 14.1646875 -13.6696875 14.1646875 -12.3125 13.3125 C-6.9851179 9.74002024 -3.37370592 5.37293906 0 0 Z " fill="#1CA4E9" transform="translate(298,291)"/>
<path d="M0 0 C1.32 0.33 2.64 0.66 4 1 C5.53445094 4.06890187 4.54984289 6.70094266 4 10 C1.69 10 -0.62 10 -3 10 C-2.01 6.7 -1.02 3.4 0 0 Z " fill="#02ADF4" transform="translate(201,127)"/>
<path d="M0 0 C0.66 0.99 1.32 1.98 2 3 C1.67 3.99 1.34 4.98 1 6 C0.175 6.268125 -0.65 6.53625 -1.5 6.8125 C-2.7375 7.4003125 -2.7375 7.4003125 -4 8 C-4.89830839 11.05272465 -4.89830839 11.05272465 -5 14 C-5.66 14 -6.32 14 -7 14 C-6.938125 14.78375 -6.87625 15.5675 -6.8125 16.375 C-6.874375 17.24125 -6.93625 18.1075 -7 19 C-7.99 19.66 -8.98 20.32 -10 21 C-8.20299191 13.59128245 -5.53357505 5.53357505 0 0 Z " fill="#30ACE7" transform="translate(264,80)"/>
<path d="M0 0 C0.556875 0.36609375 1.11375 0.7321875 1.6875 1.109375 C0.6975 1.604375 0.6975 1.604375 -0.3125 2.109375 C-0.9725 1.779375 -1.6325 1.449375 -2.3125 1.109375 C-2.3125 1.769375 -2.3125 2.429375 -2.3125 3.109375 C-1.6525 3.769375 -0.9925 4.429375 -0.3125 5.109375 C-1.3125 6.109375 -1.3125 6.109375 -3.8125 6.234375 C-6.3125 6.109375 -6.3125 6.109375 -7.3125 5.109375 C-8.83178038 5.03757536 -10.35417482 5.02545493 -11.875 5.046875 C-13.11443359 5.06041016 -13.11443359 5.06041016 -14.37890625 5.07421875 C-15.33603516 5.09162109 -15.33603516 5.09162109 -16.3125 5.109375 C-13.34961 3.60049583 -10.36406734 2.18048037 -7.3125 0.859375 C-6.466875 0.48296875 -5.62125 0.1065625 -4.75 -0.28125 C-2.3125 -0.890625 -2.3125 -0.890625 0 0 Z " fill="#1CA5E9" transform="translate(262.3125,303.890625)"/>
<path d="M0 0 C2.2477975 2.05233685 3.0022242 3.00667261 4 6 C6.01508358 6.73323796 6.01508358 6.73323796 8 7 C8 6.01 8 5.02 8 4 C7.01 4 6.02 4 5 4 C5.33 3.01 5.66 2.02 6 1 C7.875 1.25 7.875 1.25 10 2 C11.25 4.0625 11.25 4.0625 12 6 C9.71711331 8.11378397 8.60327757 9 5.4375 9 C2.1939629 7.66931811 1.42405333 6.14790736 0 3 C0 2.01 0 1.02 0 0 Z " fill="#1FACE4" transform="translate(195,288)"/>
<path d="M0 0 C0.99 0.33 1.98 0.66 3 1 C3.6875 3.0625 3.6875 3.0625 4 5 C2.68 5 1.36 5 0 5 C-0.33 5.99 -0.66 6.98 -1 8 C-4.3 8.33 -7.6 8.66 -11 9 C-6.5 5 -6.5 5 -2 5 C-1.34 3.35 -0.68 1.7 0 0 Z " fill="#13A8EE" transform="translate(226,138)"/>
<path d="M0 0 C0.79470703 -0.01611328 1.58941406 -0.03222656 2.40820312 -0.04882812 C7.39350905 -0.05295162 10.89804375 0.49733587 15.1875 3.3125 C16.5625 6 16.5625 6 17.1875 8.3125 C16.64480469 7.96316406 16.10210937 7.61382812 15.54296875 7.25390625 C14.82753906 6.79886719 14.11210937 6.34382813 13.375 5.875 C12.66730469 5.42253906 11.95960938 4.97007813 11.23046875 4.50390625 C5.78793574 1.32996253 -1.02818009 1.5660218 -7.08984375 2.76171875 C-8.68189996 3.2207779 -10.25132723 3.75741635 -11.8125 4.3125 C-11.8125 3.6525 -11.8125 2.9925 -11.8125 2.3125 C-7.77735533 -0.37759645 -4.73360768 -0.0189193 0 0 Z " fill="#1DA8E0" transform="translate(209.8125,94.6875)"/>
<path d="M0 0 C1.65 0.33 3.3 0.66 5 1 C5.33 1.99 5.66 2.98 6 4 C4.69791204 6.02048131 3.36011609 8.01811655 2 10 C0.75675853 13.2249208 0.75675853 13.2249208 0 16 C-1.46726798 12.18510326 -0.43336419 9.70988378 1 6 C0.01 6 -0.98 6 -2 6 C-1.49396008 3.83125748 -1.00016187 2.00032373 0 0 Z " fill="#0FA4EB" transform="translate(259,264)"/>
<path d="M0 0 C0.66 0.33 1.32 0.66 2 1 C0.98907749 3.02184501 -0.01649498 5.0293244 -1.125 7 C-2.26721256 9.24693303 -2.26721256 9.24693303 -2 13 C0.64 13.33 3.28 13.66 6 14 C6 14.33 6 14.66 6 15 C4.35425434 15.02688151 2.70838587 15.04634123 1.0625 15.0625 C0.14597656 15.07410156 -0.77054687 15.08570312 -1.71484375 15.09765625 C-4 15 -4 15 -5 14 C-5.0482539 9.32902264 -4.56848939 5.8441206 -1.9375 1.9375 C-1.298125 1.298125 -0.65875 0.65875 0 0 Z " fill="#C9F9FE" transform="translate(92,67)"/>
<path d="M0 0 C1.4540625 0.0309375 1.4540625 0.0309375 2.9375 0.0625 C1.9475 0.7225 0.9575 1.3825 -0.0625 2.0625 C0.2675 2.7225 0.5975 3.3825 0.9375 4.0625 C-1.29075644 6.29075644 -2.72011628 6.75489369 -5.6875 7.6875 C-6.50476563 7.94789063 -7.32203125 8.20828125 -8.1640625 8.4765625 C-8.79054687 8.66992188 -9.41703125 8.86328125 -10.0625 9.0625 C-9.08430976 7.74927212 -8.1049189 6.43693848 -7.125 5.125 C-6.57972656 4.39410156 -6.03445312 3.66320312 -5.47265625 2.91015625 C-3.30303296 0.06740884 -3.30303296 0.06740884 0 0 Z " fill="#13ACF0" transform="translate(223.0625,293.9375)"/>
<path d="M0 0 C0.99 0 1.98 0 3 0 C3.33 1.32 3.66 2.64 4 4 C2.35 4.66 0.7 5.32 -1 6 C-1 6.66 -1 7.32 -1 8 C-2.28913487 8.67154933 -3.58140204 9.33708859 -4.875 10 C-5.59429687 10.37125 -6.31359375 10.7425 -7.0546875 11.125 C-9 12 -9 12 -11 12 C-10.67 10.68 -10.34 9.36 -10 8 C-8.02 8.495 -8.02 8.495 -6 9 C-6 8.34 -6 7.68 -6 7 C-4.68 7 -3.36 7 -2 7 C-0.5393715 4.35261084 0 3.10551666 0 0 Z " fill="#02BCF0" transform="translate(97,264)"/>
<path d="M0 0 C0.33 0 0.66 0 1 0 C0.98952637 0.75095947 0.97905273 1.50191895 0.96826172 2.27563477 C0.92648109 5.70455529 0.90060378 9.13342207 0.875 12.5625 C0.85824219 13.74392578 0.84148437 14.92535156 0.82421875 16.14257812 C0.7905415 22.15396759 0.88961106 27.34183122 3 33 C0 31 0 31 -1 28 C-1.09309158 26.37054607 -1.13069111 24.73757832 -1.1328125 23.10546875 C-1.13410156 22.14962891 -1.13539063 21.19378906 -1.13671875 20.20898438 C-1.13285156 19.21189453 -1.12898437 18.21480469 -1.125 17.1875 C-1.13080078 15.70926758 -1.13080078 15.70926758 -1.13671875 14.20117188 C-1.1302121 9.35697017 -1.01845121 4.76085527 0 0 Z " fill="#AFF2FD" transform="translate(152,272)"/>
<path d="M0 0 C0.33 0 0.66 0 1 0 C1.09765625 6.15234375 1.09765625 6.15234375 1 8 C0.67 8.33 0.34 8.66 0 9 C-0.04063832 10.66617115 -0.042721 12.33388095 0 14 C1.32 14 2.64 14 4 14 C4 14.66 4 15.32 4 16 C1.35261084 17.4606285 0.10551666 18 -3 18 C-3.42765417 11.58518742 -1.85743168 6.11404596 0 0 Z " fill="#28AEE3" transform="translate(174,118)"/>
<path d="M0 0 C0.33 0.99 0.66 1.98 1 3 C-0.28583984 3.14695312 -0.28583984 3.14695312 -1.59765625 3.296875 C-8.32309509 4.17641379 -13.4087242 5.09910991 -19 9 C-18.34 7.35 -17.68 5.7 -17 4 C-13.535 3.505 -13.535 3.505 -10 3 C-10 2.34 -10 1.68 -10 1 C-6.7 0.67 -3.4 0.34 0 0 Z " fill="#22AFDD" transform="translate(161,96)"/>
<path d="M0 0 C0 3.26795703 -0.57850516 5.0821948 -2 8 C-2.99 8.66 -3.98 9.32 -5 10 C-5.93112231 11.88332058 -5.93112231 11.88332058 -6.5625 14 C-7.46255595 16.76627364 -7.89228973 17.89228973 -10 20 C-9.82748156 12.2366702 -5.41475975 5.41475975 0 0 Z " fill="#C4F4FE" transform="translate(138,108)"/>
<path d="M0 0 C0 0.99 0 1.98 0 3 C-2.55270089 5.55270089 -4.46726975 5.91363069 -8.01464844 6.11352539 C-8.7059082 6.10828857 -9.39716797 6.10305176 -10.109375 6.09765625 C-10.86347656 6.09443359 -11.61757812 6.09121094 -12.39453125 6.08789062 C-13.17183594 6.07951172 -13.94914063 6.07113281 -14.75 6.0625 C-15.54277344 6.05798828 -16.33554688 6.05347656 -17.15234375 6.04882812 C-19.10159508 6.03708565 -21.05080738 6.01915146 -23 6 C-23 5.34 -23 4.68 -23 4 C-22.09378906 4.04640625 -21.18757812 4.0928125 -20.25390625 4.140625 C-12.51112365 4.37004078 -6.72842665 3.98721579 0 0 Z " fill="#21A9E1" transform="translate(212,303)"/>
<path d="M0 0 C0.33 0 0.66 0 1 0 C1.66 3.3 2.32 6.6 3 10 C4.65 10 6.3 10 8 10 C9.67343448 10.29749946 11.34305915 10.62127066 13 11 C12.01 12.485 12.01 12.485 11 14 C7.06034012 14.70038398 5.45989656 14.30993029 2.125 12.0625 C-0.72418203 7.9563259 -0.47493725 4.84435994 0 0 Z " fill="#1EB8DD" transform="translate(81,296)"/>
<path d="M0 0 C1.65 0 3.3 0 5 0 C-1.49625155 5.54092044 -6.14110954 7.33548726 -14.609375 7.30078125 C-17 7 -17 7 -19 5 C-17.73542969 5.03480469 -17.73542969 5.03480469 -16.4453125 5.0703125 C-15.34960938 5.08835937 -14.25390625 5.10640625 -13.125 5.125 C-12.03445312 5.14820313 -10.94390625 5.17140625 -9.8203125 5.1953125 C-6.8628949 5.30060534 -6.8628949 5.30060534 -5 3 C-3.68 3 -2.36 3 -1 3 C-0.67 2.01 -0.34 1.02 0 0 Z " fill="#CCFBFF" transform="translate(174,300)"/>
<path d="M0 0 C0.66 0 1.32 0 2 0 C1.67 3.63 1.34 7.26 1 11 C5.62 11 10.24 11 15 11 C11.79057528 13.13961648 10.26017296 13.40632828 6.5 13.75 C5.06140625 13.89695312 5.06140625 13.89695312 3.59375 14.046875 C1 14 1 14 -2 12 C-1 3.42857143 -1 3.42857143 0 0 Z " fill="#26B8DF" transform="translate(87,70)"/>
<path d="M0 0 C3 2 3 2 3.3984375 3.875 C3.39070312 4.57625 3.38296875 5.2775 3.375 6 C3.38273438 6.70125 3.39046875 7.4025 3.3984375 8.125 C3 10 3 10 0 12 C-3.0625 12.3125 -3.0625 12.3125 -6 12 C-6.66 11.01 -7.32 10.02 -8 9 C-5.36 9.33 -2.72 9.66 0 10 C0 6.7 0 3.4 0 0 Z " fill="#CAF8FE" transform="translate(224,101)"/>
<path d="M0 0 C0 0.33 0 0.66 0 1 C-1.65 1 -3.3 1 -5 1 C-5 1.66 -5 2.32 -5 3 C-5.99 3.33 -6.98 3.66 -8 4 C-8.33 4.99 -8.66 5.98 -9 7 C-9.99 7 -10.98 7 -12 7 C-11.25 2.25 -11.25 2.25 -9 0 C-5.64103108 -0.97233311 -3.32221382 -1.10740461 0 0 Z " fill="#05BFF0" transform="translate(74,226)"/>
<path d="M0 0 C3.375 4.5 3.375 4.5 3.1875 8.75 C3.16042969 9.54921875 3.13335937 10.3484375 3.10546875 11.171875 C3.07066406 11.77515625 3.03585938 12.3784375 3 13 C-3.625 13.25 -3.625 13.25 -7 11 C-4.69 11 -2.38 11 0 11 C0 7.37 0 3.74 0 0 Z " fill="#C9F9FE" transform="translate(144,267)"/>
<path d="M0 0 C-6.32064005 3.5277991 -12.84827621 3.98577814 -20 3 C-21.890625 1.4765625 -21.890625 1.4765625 -23 0 C-21.35 0 -19.7 0 -18 0 C-18 0.66 -18 1.32 -18 2 C-16.06201479 1.69052329 -14.12462574 1.37731166 -12.1875 1.0625 C-11.10855469 0.88847656 -10.02960938 0.71445312 -8.91796875 0.53515625 C-2.12953368 -0.70984456 -2.12953368 -0.70984456 0 0 Z " fill="#C7F5FD" transform="translate(287,305)"/>
<path d="M0 0 C0.66 0.33 1.32 0.66 2 1 C0.68 6.61 -0.64 12.22 -2 18 C-2.33 18 -2.66 18 -3 18 C-3.31985731 11.28299653 -2.4793824 6.24273068 0 0 Z " fill="#C7F2FD" transform="translate(246,127)"/>
<path d="M0 0 C0.763125 0.0825 1.52625 0.165 2.3125 0.25 C3 2.5 3 2.5 3.3125 5.25 C1.875 7.5625 1.875 7.5625 0.3125 9.25 C0.3125 6.94 0.3125 4.63 0.3125 2.25 C-0.6775 2.25 -1.6675 2.25 -2.6875 2.25 C-3.0175 3.24 -3.3475 4.23 -3.6875 5.25 C-4.3475 4.92 -5.0075 4.59 -5.6875 4.25 C-3.34903846 0.31153846 -3.34903846 0.31153846 0 0 Z " fill="#C5F3FE" transform="translate(286.6875,124.75)"/>
<path d="M0 0 C3.3125 0.4375 3.3125 0.4375 5.3125 2.4375 C3.4871875 2.56125 3.4871875 2.56125 1.625 2.6875 C-2.47215871 3.17508372 -4.68889908 4.53260536 -7.6875 7.4375 C-8.0175 6.7775 -8.3475 6.1175 -8.6875 5.4375 C-5.83512021 1.98006995 -4.54221922 0.53890737 0 0 Z " fill="#D3F9FE" transform="translate(190.6875,120.5625)"/>
<path d="M0 0 C1.21019549 3.63058647 0.67703157 5.26118361 -0.25 8.9375 C-0.62898438 10.49791016 -0.62898438 10.49791016 -1.015625 12.08984375 C-1.97737751 14.93312001 -3.06005011 16.73854156 -5 19 C-5 17.02 -5 15.04 -5 13 C-4.34 13 -3.68 13 -3 13 C-2.86722656 12.14535156 -2.73445313 11.29070312 -2.59765625 10.41015625 C-2.33275391 8.75306641 -2.33275391 8.75306641 -2.0625 7.0625 C-1.88847656 5.96035156 -1.71445313 4.85820312 -1.53515625 3.72265625 C-1 1 -1 1 0 0 Z " fill="#21B9DE" transform="translate(100,287)"/>
<path d="M0 0 C4.99184736 -0.29363808 7.97444744 -0.07836372 12 3 C13.20272819 5.40545638 13.10071472 6.94996953 13.0625 9.625 C13.05347656 10.44226563 13.04445313 11.25953125 13.03515625 12.1015625 C13.02355469 12.72804688 13.01195312 13.35453125 13 14 C12.67 14 12.34 14 12 14 C11.87625 12.906875 11.7525 11.81375 11.625 10.6875 C11.24535199 6.92618198 11.24535199 6.92618198 9 4 C8.01 3.67 7.02 3.34 6 3 C6 2.34 6 1.68 6 1 C4.02 1 2.04 1 0 1 C0 0.67 0 0.34 0 0 Z " fill="#BDECFE" transform="translate(291,262)"/>
<path d="M0 0 C4.59682226 0.53629593 6.90861895 1.92884299 10.75 4.4375 C9.76 4.7675 8.77 5.0975 7.75 5.4375 C6.76 4.7775 5.77 4.1175 4.75 3.4375 C2.00481679 3.19562349 2.00481679 3.19562349 -0.9375 3.3125 C-1.93136719 3.33054688 -2.92523438 3.34859375 -3.94921875 3.3671875 C-4.70847656 3.39039063 -5.46773437 3.41359375 -6.25 3.4375 C-4.02653674 0.91266371 -3.51680775 0.47341643 0 0 Z " fill="#CBF8FE" transform="translate(172.25,228.5625)"/>
<path d="M0 0 C0.33 0 0.66 0 1 0 C1.50432107 5.2953712 0.28757779 7.86704506 -3 12 C-3.99 12.66 -4.98 13.32 -6 14 C-6 12.35 -6 10.7 -6 9 C-4.68 8.67 -3.36 8.34 -2 8 C-1.855625 7.236875 -1.71125 6.47375 -1.5625 5.6875 C-1 3 -1 3 0 0 Z " fill="#C6F1FD" transform="translate(277,105)"/>
<path d="M0 0 C1.5843317 0.08768248 3.16753567 0.19587329 4.75 0.3125 C6.07257813 0.39951172 6.07257813 0.39951172 7.421875 0.48828125 C10.32303774 1.0641181 11.79225607 2.07596148 14 4 C13.67 5.98 13.34 7.96 13 10 C12.67 10 12.34 10 12 10 C11.67 8.02 11.34 6.04 11 4 C9.9275 3.71125 8.855 3.4225 7.75 3.125 C4.8799847 2.26399541 2.61255453 1.37563712 0 0 Z " fill="#C4F3FE" transform="translate(240,258)"/>
<path d="M0 0 C1.32 0.66 2.64 1.32 4 2 C2.02 6.29 0.04 10.58 -2 15 C-2.33 15 -2.66 15 -3 15 C-3 13.02 -3 11.04 -3 9 C-2.34 9 -1.68 9 -1 9 C-1.04125 8.21625 -1.0825 7.4325 -1.125 6.625 C-1 4 -1 4 1 2 C0.34 1.67 -0.32 1.34 -1 1 C-0.67 0.67 -0.34 0.34 0 0 Z " fill="#1DA9E7" transform="translate(242,70)"/>
<path d="M0 0 C0.33 0.66 0.66 1.32 1 2 C0.71125 2.70125 0.4225 3.4025 0.125 4.125 C-1.30624915 7.78263671 -1.60300314 11.09619753 -2 15 C-2.66 15 -3.32 15 -4 15 C-4.38289206 5.23625255 -4.38289206 5.23625255 -2 1 C-1.34 0.67 -0.68 0.34 0 0 Z " fill="#D1FAFE" transform="translate(147,118)"/>
<path d="M0 0 C2 1 2 1 3 3.625 C4.02300917 7.07765596 5.02905764 10.5323487 6 14 C3.52140092 11.7991151 2.38789634 9.93627031 1.3125 6.8125 C0.93544922 5.73935547 0.93544922 5.73935547 0.55078125 4.64453125 C0.36902344 4.10183594 0.18726563 3.55914062 0 3 C-0.99 3.66 -1.98 4.32 -3 5 C-2.625 3.0625 -2.625 3.0625 -2 1 C-1.34 0.67 -0.68 0.34 0 0 Z " fill="#CFF8FE" transform="translate(205,266)"/>
<path d="M0 0 C0.33 0.99 0.66 1.98 1 3 C0.01 3.33 -0.98 3.66 -2 4 C-2.33 5.65 -2.66 7.3 -3 9 C-3.66 9 -4.32 9 -5 9 C-5 10.98 -5 12.96 -5 15 C-5.99 15 -6.98 15 -8 15 C-6.70970987 8.80660737 -4.0035833 4.84710557 0 0 Z " fill="#2AB0E3" transform="translate(184,240)"/>
<path d="M0 0 C1.010625 0.33 2.02125 0.66 3.0625 1 C8.46667143 2.53937004 13.55835495 2.31918668 19 1 C15.12199565 4.38541719 12.4060835 4.44077265 7.41796875 4.30078125 C4.35823295 3.92016791 2.3637441 2.96978675 0 1 C0 0.67 0 0.34 0 0 Z " fill="#CEF9FE" transform="translate(132,144)"/>
<path d="M0 0 C1.11375 0.4640625 1.11375 0.4640625 2.25 0.9375 C4.50692176 1.8094925 6.6450153 2.47667007 9 3 C9.33 5.31 9.66 7.62 10 10 C2.51708428 3.84965831 2.51708428 3.84965831 0 0 Z " fill="#1BABE8" transform="translate(215,117)"/>
<path d="M0 0 C-0.875 5.75 -0.875 5.75 -2 8 C-2.99 8 -3.98 8 -5 8 C-5.1875 5.125 -5.1875 5.125 -5 2 C-2 0 -2 0 0 0 Z " fill="#0BA2EF" transform="translate(270,72)"/>
<path d="M0 0 C1.875 0.25 1.875 0.25 4 1 C5.25 3.0625 5.25 3.0625 6 5 C3.69 5 1.38 5 -1 5 C-0.67 3.35 -0.34 1.7 0 0 Z " fill="#02A4FA" transform="translate(277,290)"/>
<path d="M0 0 C0.33 0 0.66 0 1 0 C1.20413361 5.73842251 1.27141454 10.60539047 -1 16 C-1.33 16 -1.66 16 -2 16 C-2.20413361 10.26157749 -2.27141454 5.39460953 0 0 Z " fill="#40BDEA" transform="translate(168,278)"/>
<path d="M0 0 C1.051875 0.99 1.051875 0.99 2.125 2 C5.47680735 4.33169207 7.00453212 4.52114798 11 4 C11.99 3.34 12.98 2.68 14 2 C13.34 3.65 12.68 5.3 12 7 C3.69377787 6.65173073 3.69377787 6.65173073 0.9375 4.0625 C0 2 0 2 0 0 Z " fill="#20A8E0" transform="translate(230,143)"/>
<path d="M0 0 C0.66 0.33 1.32 0.66 2 1 C2.20086443 4.71599191 2.1519437 5.77208445 0 9 C-3.125 9.1875 -3.125 9.1875 -6 9 C-6 8.67 -6 8.34 -6 8 C-4.35 8 -2.7 8 -1 8 C-1.309375 6.8553125 -1.309375 6.8553125 -1.625 5.6875 C-2 3 -2 3 0 0 Z " fill="#16ABE6" transform="translate(206,129)"/>
<path d="M0 0 C0.98120464 3.05263664 0.98120464 4.94736336 0 8 C0.66 8 1.32 8 2 8 C2 8.66 2 9.32 2 10 C0.35 10.66 -1.3 11.32 -3 12 C-2.40075776 7.80530429 -1.42500059 3.99000166 0 0 Z " fill="#3BAEE6" transform="translate(253,102)"/>
<path d="M0 0 C1.72880982 -0.05449838 3.45812712 -0.09301688 5.1875 -0.125 C6.15042969 -0.14820312 7.11335937 -0.17140625 8.10546875 -0.1953125 C11.12812778 0.0086456 13.26769985 0.73125368 16 2 C16 2.33 16 2.66 16 3 C13.03 3 10.06 3 7 3 C7 2.34 7 1.68 7 1 C4.69 1 2.38 1 0 1 C0 0.67 0 0.34 0 0 Z " fill="#CAF5FE" transform="translate(205,96)"/>
<path d="M0 0 C-0.66 1.65 -1.32 3.3 -2 5 C-2.84304687 4.75443359 -2.84304687 4.75443359 -3.703125 4.50390625 C-6.13059056 3.97135003 -8.26889681 3.90101319 -10.75 3.9375 C-11.94882813 3.95103516 -11.94882813 3.95103516 -13.171875 3.96484375 C-14.07679688 3.98224609 -14.07679688 3.98224609 -15 4 C-15 3.67 -15 3.34 -15 3 C-14.22914063 2.86722656 -13.45828125 2.73445313 -12.6640625 2.59765625 C-11.66117188 2.42105469 -10.65828125 2.24445313 -9.625 2.0625 C-8.62726563 1.88847656 -7.62953125 1.71445312 -6.6015625 1.53515625 C-4.17911891 1.03684578 -2.44449381 0 0 0 Z " fill="#16ACE6" transform="translate(172,305)"/>
<path d="M0 0 C0.33 0 0.66 0 1 0 C1 1.65 1 3.3 1 5 C0.34 5 -0.32 5 -1 5 C-1.33 9.29 -1.66 13.58 -2 18 C-2.33 18 -2.66 18 -3 18 C-3.08150744 15.93816367 -3.1394194 13.87538651 -3.1875 11.8125 C-3.22230469 10.66394531 -3.25710937 9.51539063 -3.29296875 8.33203125 C-2.97545546 4.72084678 -2.15237035 2.87886312 0 0 Z " fill="#B2F5FD" transform="translate(74,287)"/>
<path d="M0 0 C0.99 0.33 1.98 0.66 3 1 C3.33 3.31 3.66 5.62 4 8 C3.01 8.66 2.02 9.32 1 10 C0 2.25 0 2.25 0 0 Z " fill="#D7FBFE" transform="translate(196,123)"/>
<path d="M0 0 C0.33 0 0.66 0 1 0 C1 1.65 1 3.3 1 5 C-1.35346396 6.17673198 -2.8806033 6.16623866 -5.5 6.1875 C-6.2940625 6.20167969 -7.088125 6.21585937 -7.90625 6.23046875 C-10 6 -10 6 -12 4 C-9.69 4.33 -7.38 4.66 -5 5 C-4.67 4.01 -4.34 3.02 -4 2 C-3.67 2.66 -3.34 3.32 -3 4 C-2.01 4 -1.02 4 0 4 C0 2.68 0 1.36 0 0 Z " fill="#D4F9FE" transform="translate(315,282)"/>
<path d="M0 0 C0.66 0.99 1.32 1.98 2 3 C1.32453125 2.98839844 0.6490625 2.97679687 -0.046875 2.96484375 C-0.93890625 2.95582031 -1.8309375 2.94679688 -2.75 2.9375 C-3.63171875 2.92589844 -4.5134375 2.91429687 -5.421875 2.90234375 C-7.7818838 2.99173802 -9.74498524 3.33087179 -12 4 C-8.14613771 -0.02903785 -5.64709559 -0.40336397 0 0 Z " fill="#C4F7FE" transform="translate(276,265)"/>
<path d="M0 0 C0.99 0 1.98 0 3 0 C3 3.96 3 7.92 3 12 C2.34 11.67 1.68 11.34 1 11 C0.5859375 8.49609375 0.5859375 8.49609375 0.375 5.4375 C0.30023438 4.42558594 0.22546875 3.41367188 0.1484375 2.37109375 C0.09945312 1.58863281 0.05046875 0.80617188 0 0 Z " fill="#0EB4E8" transform="translate(124,127)"/>
<path d="M0 0 C2.64 0 5.28 0 8 0 C7.01 0.495 7.01 0.495 6 1 C6 1.66 6 2.32 6 3 C4.35 3 2.7 3 1 3 C0.67 4.32 0.34 5.64 0 7 C-1.33332095 4.3333581 -0.67102033 2.83319697 0 0 Z " fill="#06B7ED" transform="translate(128,83)"/>
<path d="M0 0 C0.33 0.99 0.66 1.98 1 3 C-2.02544334 5.01696222 -2.61067382 5.25811096 -6 5.1875 C-6.680625 5.18105469 -7.36125 5.17460937 -8.0625 5.16796875 C-10 5 -10 5 -13 4 C-12.67 3.01 -12.34 2.02 -12 1 C-10.515 1.99 -10.515 1.99 -9 3 C-4.73110151 3.49456096 -4.73110151 3.49456096 -1.125 1.5 C-0.75375 1.005 -0.3825 0.51 0 0 Z " fill="#C9FAFD" transform="translate(95,306)"/>
<path d="M0 0 C0.66 0.99 1.32 1.98 2 3 C1.34 3 0.68 3 0 3 C-0.268125 3.928125 -0.53625 4.85625 -0.8125 5.8125 C-1.91148371 8.76240366 -2.62418561 10.05615186 -5 12 C-5.66 11.67 -6.32 11.34 -7 11 C-6.66226563 10.54109375 -6.32453125 10.0821875 -5.9765625 9.609375 C-2.63691049 5.01807574 -2.63691049 5.01807574 0 0 Z " fill="#2CB9E0" transform="translate(116,300)"/>
<path d="M0 0 C0.53625 0.2475 1.0725 0.495 1.625 0.75 C-0.125 2.75 -0.125 2.75 -2.375 4.75 C-6.375 4.75 -6.375 4.75 -8.375 3.75 C-2.95961538 -0.31153846 -2.95961538 -0.31153846 0 0 Z " fill="#1FBFE4" transform="translate(80.375,239.25)"/>
<path d="M0 0 C1.03115279 3.26913624 0.9638984 5.86041348 0.5625 9.25 C0.46066406 10.14203125 0.35882813 11.0340625 0.25390625 11.953125 C0.12822266 12.96632813 0.12822266 12.96632813 0 14 C-0.99 14.33 -1.98 14.66 -3 15 C-2.44854729 9.76119922 -1.57077907 5.02649303 0 0 Z " fill="#B7EDFD" transform="translate(239,85)"/>
<path d="M0 0 C0.66 0.33 1.32 0.66 2 1 C0.6875 2.5 0.6875 2.5 -1 4 C-1.99 4 -2.98 4 -4 4 C-4.66 5.32 -5.32 6.64 -6 8 C-6.99 8 -7.98 8 -9 8 C-6.37347975 4.40069448 -4.06036357 1.92333011 0 0 Z " fill="#2FBBDF" transform="translate(91,285)"/>
<path d="M0 0 C-1.62249941 0.83819158 -3.24808497 1.6704116 -4.875 2.5 C-6.23238281 3.19609375 -6.23238281 3.19609375 -7.6171875 3.90625 C-10 5 -10 5 -12 5 C-12 4.01 -12 3.02 -12 2 C-10.75579353 1.4654744 -9.50429064 0.94791389 -8.25 0.4375 C-7.55390625 0.14746094 -6.8578125 -0.14257812 -6.140625 -0.44140625 C-3.69987216 -1.07831803 -2.3596345 -0.80248831 0 0 Z " fill="#CBF9FE" transform="translate(98,283)"/>
<path d="M0 0 C-0.33 0.99 -0.66 1.98 -1 3 C-4.3 3 -7.6 3 -11 3 C-11 2.34 -11 1.68 -11 1 C-9.54182203 0.83197949 -8.0834516 0.66562857 -6.625 0.5 C-5.81289062 0.4071875 -5.00078125 0.314375 -4.1640625 0.21875 C-2 0 -2 0 0 0 Z " fill="#1BABDE" transform="translate(174,146)"/>
<path d="M0 0 C1.40907283 2.81814566 0.50872691 4.17277204 -0.4375 7.125 C-0.72496094 8.03507812 -1.01242188 8.94515625 -1.30859375 9.8828125 C-1.53675781 10.58148438 -1.76492187 11.28015625 -2 12 C-2.66 12 -3.32 12 -4 12 C-3.5317879 7.22423661 -2.75668002 3.95523655 0 0 Z " fill="#3EB6E9" transform="translate(199,274)"/>
<path d="M0 0 C0.33 0 0.66 0 1 0 C1.31563182 5.26053037 0.66590937 8.44573816 -2 13 C-3.18771723 9.57056481 -2.80226223 7.62215325 -1.5625 4.25 C-1.27503906 3.45078125 -0.98757812 2.6515625 -0.69140625 1.828125 C-0.46324219 1.22484375 -0.23507813 0.6215625 0 0 Z " fill="#B2EFFC" transform="translate(158,246)"/>
<path d="M0 0 C2.475 0.495 2.475 0.495 5 1 C5.33 2.32 5.66 3.64 6 5 C6.66 5 7.32 5 8 5 C7.67 6.32 7.34 7.64 7 9 C7 8.01 7 7.02 7 6 C6.401875 5.896875 5.80375 5.79375 5.1875 5.6875 C2.68741714 4.90175967 1.62464918 4.03081147 0 2 C0 1.34 0 0.68 0 0 Z " fill="#12AFE6" transform="translate(159,219)"/>
<path d="M0 0 C2.31 0 4.62 0 7 0 C4.57418129 2.42581871 2.92566131 2.96355664 -0.48046875 3.09765625 C-1.37378906 3.08605469 -2.26710938 3.07445312 -3.1875 3.0625 C-4.53908203 3.04896484 -4.53908203 3.04896484 -5.91796875 3.03515625 C-6.60503906 3.02355469 -7.29210937 3.01195312 -8 3 C-8 2.67 -8 2.34 -8 2 C-5.36 2 -2.72 2 0 2 C0 1.34 0 0.68 0 0 Z " fill="#CCF7FE" transform="translate(268,145)"/>
<path d="M0 0 C0 0.33 0 0.66 0 1 C-0.92232422 1.07347656 -0.92232422 1.07347656 -1.86328125 1.1484375 C-2.67152344 1.22320312 -3.47976562 1.29796875 -4.3125 1.375 C-5.51326172 1.47941406 -5.51326172 1.47941406 -6.73828125 1.5859375 C-9.27224441 1.89564426 -9.27224441 1.89564426 -12 4 C-14.1875 3.625 -14.1875 3.625 -16 3 C-10.62669111 -0.39366878 -6.13053511 -0.32712342 0 0 Z " fill="#C4F8FE" transform="translate(162,99)"/>
<path d="M0 0 C0.66 0.33 1.32 0.66 2 1 C2.1875 3.375 2.1875 3.375 2 6 C1.01 6.66 0.02 7.32 -1 8 C-1.99 7.67 -2.98 7.34 -4 7 C-3.34 7 -2.68 7 -2 7 C-2 5.68 -2 4.36 -2 3 C-1.34 3 -0.68 3 0 3 C0 2.01 0 1.02 0 0 Z " fill="#02A0F7" transform="translate(301,288)"/>
<path d="M0 0 C1.65 0 3.3 0 5 0 C1.8745041 2.64465038 -1.08788267 3.84414715 -5 5 C-4.67 3.68 -4.34 2.36 -4 1 C-2.02 1.495 -2.02 1.495 0 2 C0 1.34 0 0.68 0 0 Z " fill="#27BCE4" transform="translate(91,271)"/>
<path d="M0 0 C0.66 0.33 1.32 0.66 2 1 C0.68 4.63 -0.64 8.26 -2 12 C-2.33 12 -2.66 12 -3 12 C-3.2954439 6.97745369 -2.98514628 4.10457614 0 0 Z " fill="#CBF7FE" transform="translate(128,244)"/>
<path d="M0 0 C1.32 0.33 2.64 0.66 4 1 C3.01 1 2.02 1 1 1 C1 2.32 1 3.64 1 5 C0.34 5 -0.32 5 -1 5 C-1.66 6.65 -2.32 8.3 -3 10 C-3.33 9.34 -3.66 8.68 -4 8 C-3.22265625 6.0546875 -3.22265625 6.0546875 -2.0625 3.875 C-1.49208984 2.78832031 -1.49208984 2.78832031 -0.91015625 1.6796875 C-0.60980469 1.12539062 -0.30945313 0.57109375 0 0 Z " fill="#2CB5DF" transform="translate(132,240)"/>
<path d="M0 0 C2.475 0.99 2.475 0.99 5 2 C5 2.66 5 3.32 5 4 C2.03 3.67 -0.94 3.34 -4 3 C-3.34 2.34 -2.68 1.68 -2 1 C-1.34 1.33 -0.68 1.66 0 2 C0 1.34 0 0.68 0 0 Z " fill="#1FBEF0" transform="translate(107,218)"/>
<path d="M0 0 C1.80125336 2.70188004 3.00243753 4.93057703 4 8 C3.67 8.99 3.34 9.98 3 11 C2.67 9.68 2.34 8.36 2 7 C1.01 7.33 0.02 7.66 -1 8 C-0.67 5.36 -0.34 2.72 0 0 Z " fill="#33A6DC" transform="translate(247,128)"/>
<path d="M0 0 C7.50769231 0.49230769 7.50769231 0.49230769 10 3.0625 C10.33 3.701875 10.66 4.34125 11 5 C10.67 5.66 10.34 6.32 10 7 C9.278125 6.38125 8.55625 5.7625 7.8125 5.125 C5.21618062 3.16333647 3.05328334 2.04684 0 1 C0 0.67 0 0.34 0 0 Z " fill="#27ABE4" transform="translate(216,96)"/>
<path d="M0 0 C1.9375 0.8125 1.9375 0.8125 4 2 C4.33 2.99 4.66 3.98 5 5 C3.33333333 5 1.66666667 5 0 5 C-0.33 5.66 -0.66 6.32 -1 7 C-0.67 4.69 -0.34 2.38 0 0 Z " fill="#03C0F0" transform="translate(73,313)"/>
<path d="M0 0 C0 0.66 0 1.32 0 2 C-2.64 2 -5.28 2 -8 2 C-8 1.34 -8 0.68 -8 0 C-5.13822943 -1.43088528 -3.06624227 -0.59991697 0 0 Z " fill="#23A5ED" transform="translate(314,278)"/>
<path d="M0 0 C0.33 0 0.66 0 1 0 C1 2.64 1 5.28 1 8 C0.01 8.33 -0.98 8.66 -2 9 C-1.125 1.125 -1.125 1.125 0 0 Z " fill="#C9F7FC" transform="translate(108,245)"/>
<path d="M0 0 C0 0.99 0 1.98 0 3 C-0.66 3 -1.32 3 -2 3 C-2.33 3.99 -2.66 4.98 -3 6 C-4.65 5.67 -6.3 5.34 -8 5 C-5.44008376 2.98863724 -2.95409701 1.37154504 0 0 Z " fill="#20A5E5" transform="translate(272,118)"/>
<path d="M0 0 C0.66 0 1.32 0 2 0 C0.8141763 3.37503669 -0.27573689 5.64722731 -3 8 C-3 6.02 -3 4.04 -3 2 C-2.01 2 -1.02 2 0 2 C0 1.34 0 0.68 0 0 Z " fill="#D4FAFD" transform="translate(111,305)"/>
<path d="M0 0 C0.33 0 0.66 0 1 0 C1.08131463 1.43655854 1.13933559 2.8744483 1.1875 4.3125 C1.23970703 5.51326172 1.23970703 5.51326172 1.29296875 6.73828125 C0.93801608 9.47851584 0.10633718 10.29171079 -2 12 C-1 3.42857143 -1 3.42857143 0 0 Z " fill="#B9F3FC" transform="translate(102,282)"/>
<path d="M0 0 C0.66 0.33 1.32 0.66 2 1 C0.84414715 4.91211733 -0.35534962 7.8745041 -3 11 C-3 9.35 -3 7.7 -3 6 C-2.34 6 -1.68 6 -1 6 C-0.67 4.02 -0.34 2.04 0 0 Z " fill="#CEF7FE" transform="translate(178,244)"/>
<path d="M0 0 C0.33 0.66 0.66 1.32 1 2 C0.0625 4.125 0.0625 4.125 -1 6 C-0.34 6.33 0.32 6.66 1 7 C-0.65 6.67 -2.3 6.34 -4 6 C-4 5.01 -4 4.02 -4 3 C-2 1.3125 -2 1.3125 0 0 Z " fill="#2FB0E2" transform="translate(199,131)"/>
<path d="M0 0 C0.66 0 1.32 0 2 0 C1.38461538 6.52307692 1.38461538 6.52307692 -0.5625 8.9375 C-1.036875 9.288125 -1.51125 9.63875 -2 10 C-2.22036864 6.14354879 -1.60355101 3.50776784 0 0 Z " fill="#CCF7FD" transform="translate(121,97)"/>
<path d="M0 0 C0.66 0.66 1.32 1.32 2 2 C0.948125 1.979375 -0.10375 1.95875 -1.1875 1.9375 C-4.32704904 1.98896802 -6.96883396 2.26517187 -10 3 C-7.30045271 -0.81112559 -4.38454651 -0.39859514 0 0 Z " fill="#C3F5FE" transform="translate(257,68)"/>
<path d="M0 0 C1.98 0 3.96 0 6 0 C6 0.99 6 1.98 6 3 C4.02 3 2.04 3 0 3 C0 2.01 0 1.02 0 0 Z " fill="#00A9FA" transform="translate(249,292)"/>
<path d="M0 0 C-0.33 1.32 -0.66 2.64 -1 4 C-3.76276177 3.47731534 -6.3260876 2.89130413 -9 2 C-5.62902617 0.50178941 -3.79557881 0 0 0 Z " fill="#28BCDB" transform="translate(102,282)"/>
<path d="M0 0 C2.78388975 1.70625501 3.85384206 2.47626739 4.75 5.6875 C4.8325 6.450625 4.915 7.21375 5 8 C4.01 7.34 3.02 6.68 2 6 C2 5.34 2 4.68 2 4 C1.34 4 0.68 4 0 4 C0 2.68 0 1.36 0 0 Z " fill="#CDF7FE" transform="translate(161,223)"/>
<path d="M0 0 C2.475 0.495 2.475 0.495 5 1 C3.02 3.97 3.02 3.97 1 7 C0.31292445 4.50935112 0 2.62113708 0 0 Z " fill="#11ABE4" transform="translate(192,98)"/>
<path d="M0 0 C0.66 0.99 1.32 1.98 2 3 C1.67 3.99 1.34 4.98 1 6 C0.01 6 -0.98 6 -2 6 C-1.125 1.125 -1.125 1.125 0 0 Z " fill="#15A6EC" transform="translate(264,80)"/>
<path d="M0 0 C-1.11375 0.474375 -2.2275 0.94875 -3.375 1.4375 C-5.26710994 2.25306463 -7.15712709 3.07856355 -9 4 C-9.66 3.34 -10.32 2.68 -11 2 C-3.57142857 -1.57142857 -3.57142857 -1.57142857 0 0 Z " fill="#C5FAFE" transform="translate(105,64)"/>
</svg>
